<?xml version="1.0" encoding="utf-8"?>
<!-- Generator: Adobe Illustrator 24.0.1, SVG Export Plug-In . SVG Version: 6.00 Build 0)  -->
<svg version="1.1" id="Ebene_1" xmlns="http://www.w3.org/2000/svg" xmlns:xlink="http://www.w3.org/1999/xlink" x="0px" y="0px"
	 viewBox="0 0 1501 1024" style="enable-background:new 0 0 1501 1024;" xml:space="preserve">
<style type="text/css">
	.st0{fill:#FFFFFF;}
	.st1{fill:none;stroke:#2B444F;stroke-width:2.8377;stroke-dasharray:7.0942,7.0942;}
	.st2{fill:none;stroke:#2B444F;stroke-width:2.8377;}
	.st3{fill:none;stroke:#2B444F;stroke-width:4.7564;stroke-miterlimit:4;}
	.st4{fill:#E30613;}
	.st5{fill:none;stroke:#2B444F;stroke-width:7.0942;}
	.st6{fill:#2B444F;}
	.st7{fill:#2B444F;stroke:#2B444F;stroke-width:1.4188;}
	.st8{fill:#2B444F;stroke:#2B444F;stroke-width:0.3633;}
	.st9{fill:none;stroke:#E30613;stroke-width:2.8377;}
	.st10{fill:none;stroke:#2B444F;stroke-width:5.7977;}
	.st11{fill:#2B444F;stroke:#2B444F;stroke-width:5.7977;}
	.st12{fill:none;stroke:#2B444F;stroke-width:2.0065;}
	.st13{fill:none;stroke:#E30613;stroke-width:2.0065;}
	.st14{fill:#5F7884;}
</style>
<rect x="0.5" y="0.5" class="st0" width="1500" height="1023"/>
<g>
	<line class="st1" x1="487" y1="477.5" x2="487" y2="530"/>
	<path class="st2" d="M496.6,537.9c0,5.3-4.3,9.6-9.6,9.6c-5.3,0-9.6-4.3-9.6-9.6s4.3-9.6,9.6-9.6
		C492.3,528.3,496.6,532.6,496.6,537.9z"/>
</g>
<g>
	<line class="st1" x1="303.3" y1="477.5" x2="303.3" y2="530"/>
	<path class="st2" d="M313,537.9c0,5.3-4.3,9.6-9.6,9.6c-5.3,0-9.6-4.3-9.6-9.6s4.3-9.6,9.6-9.6C308.7,528.3,313,532.6,313,537.9z"
		/>
</g>
<g>
	<path class="st2" d="M693.8,537.9c0,5.3-4.3,9.6-9.6,9.6s-9.6-4.3-9.6-9.6s4.3-9.6,9.6-9.6C689.5,528.3,693.8,532.6,693.8,537.9z"
		/>
	<line class="st1" x1="684.2" y1="477.5" x2="684.2" y2="530"/>
</g>
<g>
	<line class="st1" x1="1166.1" y1="477.5" x2="1166.1" y2="530"/>
	<path class="st2" d="M1175.7,537.9c0,5.3-4.3,9.6-9.6,9.6c-5.3,0-9.6-4.3-9.6-9.6s4.3-9.6,9.6-9.6
		C1171.4,528.3,1175.7,532.6,1175.7,537.9z"/>
</g>
<g>
	<line class="st1" x1="933.4" y1="477.5" x2="933.4" y2="530"/>
	<path class="st2" d="M943.1,537.9c0,5.3-4.3,9.6-9.6,9.6s-9.6-4.3-9.6-9.6s4.3-9.6,9.6-9.6C938.8,528.3,943.1,532.6,943.1,537.9z"
		/>
</g>
<g>
	
		<rect x="100.5" y="583.1" transform="matrix(0.7116 -0.7026 0.7026 0.7116 -394.3535 271.4362)" class="st3" width="65.9" height="65.9"/>
	<g>
		<path class="st4" d="M138.9,593.6l-1.9,34.8l-7,0.1l-2.4-38.8l11.3-0.1V593.6z M139.3,642.3l-11.3,0.1l-0.1-7.9l11.3-0.1
			L139.3,642.3z"/>
	</g>
</g>
<g>
	<g>
		<path class="st5" d="M637.8,638.7c0,2.6-2.2,4.8-4.8,4.8l-42.2-0.2c-2.6,0-4.8-2.2-4.8-4.8l0.2-41c0-2.6,2.2-4.8,4.8-4.8l42.2,0.2
			c2.6,0,4.8,2.2,4.8,4.8L637.8,638.7z"/>
		<g>
			<path class="st4" d="M634.8,600c-5.1,5.1-9.9,10.4-14.4,15.9s-8.7,11.2-12.5,17c-0.3,0.4-0.6,1-1.1,1.8c-1.3,2.3-3.1,3.5-5.3,3.3
				c-0.9-0.1-1.7-0.2-2.3-0.5s-1.1-0.8-1.6-1.5c-0.4-0.6-0.8-1.4-1.1-2.4s-0.7-2.4-1.1-4.3c0-0.1-0.1-0.3-0.1-0.4
				c-0.5-2.1-0.7-3.4-0.7-3.9c0.1-1.1,0.7-2,2-2.8s2.5-1.2,3.7-1.1c0.4,0,0.7,0.2,0.9,0.4s0.5,0.8,0.7,1.5c0.2,0.5,0.4,1.1,0.6,1.9
				c0.5,1.8,1,2.7,1.4,2.8c0.4,0,1.9-1.9,4.7-5.9c2.7-3.8,4.9-6.9,6.8-9.4c2.7-3.6,4.7-6.1,6.1-7.7c1.4-1.6,2.6-2.8,3.7-3.6
				c1-0.7,2.2-1.2,3.6-1.6c1.5-0.3,3.3-0.5,5.5-0.6L634.8,600z"/>
		</g>
	</g>
	<g>
		<path class="st5" d="M717,638.7c0,2.6-2.2,4.8-4.8,4.8l-42.2-0.2c-2.6,0-4.8-2.2-4.8-4.8l0.2-41c0-2.6,2.2-4.8,4.8-4.8l42.2,0.2
			c2.6,0,4.8,2.2,4.8,4.8L717,638.7z"/>
		<g>
			<path class="st4" d="M714,600c-5.1,5.1-9.9,10.4-14.4,15.9s-8.7,11.2-12.5,17c-0.3,0.4-0.6,1-1.1,1.8c-1.3,2.3-3.1,3.5-5.3,3.3
				c-0.9-0.1-1.7-0.2-2.3-0.5s-1.1-0.8-1.6-1.5c-0.4-0.6-0.8-1.4-1.1-2.4s-0.7-2.4-1.1-4.3c0-0.1-0.1-0.3-0.1-0.4
				c-0.5-2.1-0.7-3.4-0.7-3.9c0.1-1.1,0.7-2,2-2.8s2.5-1.2,3.7-1.1c0.4,0,0.7,0.2,0.9,0.4s0.5,0.8,0.7,1.5c0.2,0.5,0.4,1.1,0.6,1.9
				c0.5,1.8,1,2.7,1.4,2.8c0.4,0,1.9-1.9,4.7-5.9c2.7-3.8,4.9-6.9,6.8-9.4c2.7-3.6,4.7-6.1,6.1-7.7c1.4-1.6,2.6-2.8,3.7-3.6
				c1-0.7,2.2-1.2,3.6-1.6c1.5-0.3,3.3-0.5,5.5-0.6L714,600z"/>
		</g>
	</g>
	<g>
		<path class="st5" d="M796.2,638.7c0,2.6-2.2,4.8-4.8,4.8l-42.2-0.2c-2.6,0-4.8-2.2-4.8-4.8l0.2-41c0-2.6,2.2-4.8,4.8-4.8l42.2,0.2
			c2.6,0,4.8,2.2,4.8,4.8L796.2,638.7z"/>
		<g>
			<path class="st4" d="M793.1,600c-5.1,5.1-9.9,10.4-14.4,15.9s-8.7,11.2-12.5,17c-0.3,0.4-0.6,1-1.1,1.8c-1.3,2.3-3.1,3.5-5.3,3.3
				c-0.9-0.1-1.7-0.2-2.3-0.5s-1.1-0.8-1.6-1.5c-0.4-0.6-0.8-1.4-1.1-2.4s-0.7-2.4-1.1-4.3c0-0.1-0.1-0.3-0.1-0.4
				c-0.5-2.1-0.7-3.4-0.7-3.9c0.1-1.1,0.7-2,2-2.8s2.5-1.2,3.7-1.1c0.4,0,0.7,0.2,0.9,0.4s0.5,0.8,0.7,1.5c0.2,0.5,0.4,1.1,0.6,1.9
				c0.5,1.8,1,2.7,1.4,2.8c0.4,0,1.9-1.9,4.7-5.9c2.7-3.8,4.9-6.9,6.8-9.4c2.7-3.6,4.7-6.1,6.1-7.7c1.4-1.6,2.6-2.8,3.7-3.6
				c1-0.7,2.2-1.2,3.6-1.6c1.5-0.3,3.3-0.5,5.5-0.6L793.1,600z"/>
		</g>
	</g>
</g>
<g>
	
		<rect x="263.7" y="573.9" transform="matrix(1 -2.563124e-03 2.563124e-03 1 -1.5938 0.7757)" class="st6" width="76.3" height="96.6"/>
	<polygon class="st0" points="335,665.6 268.6,665.8 268.4,579.8 335,579.7 	"/>
	<path class="st7" d="M314.7,566.6v-5.4l-27.5,0.1v5.4H285V582l32-0.1v-15.3H314.7z M289.3,563.3l23.4-0.1v3.3h-2.2v3.6h-18.9v-3.6
		h-2.2L289.3,563.3z"/>
	<polygon class="st2" points="322.9,665.7 322.9,652.7 336,652.6 	"/>
	<polygon class="st8" points="322,666.1 335.6,651.4 335.6,665.6 	"/>
	<line class="st9" x1="278.3" y1="591.4" x2="308.9" y2="591.4"/>
	<line class="st9" x1="278.4" y1="597.4" x2="301.3" y2="597.4"/>
	<line class="st9" x1="278.4" y1="612.7" x2="308.9" y2="612.6"/>
	<line class="st9" x1="278.4" y1="618.7" x2="301.3" y2="618.6"/>
	<line class="st9" x1="278.5" y1="635" x2="309" y2="635"/>
	<line class="st9" x1="278.5" y1="641" x2="301.4" y2="641"/>
</g>
<g>
	<path class="st6" d="M430.6,696.1h-3v8.8c0,0.5-0.5,1-1,1h-2.8c-0.5,0-1-0.5-1-1v-22.4c0-0.5,0.5-1,1-1h6.8c4.9,0,7.5,2.8,7.5,7.3
		C438.1,693.2,434.9,696.1,430.6,696.1z M430.2,685.6h-2.6v6.4h2.6c1.9,0,3.1-1.3,3.1-3.2C433.3,686.8,432.2,685.6,430.2,685.6z"/>
	<path class="st6" d="M448.7,706.1c-5.9,0-8.9-4.3-8.9-12.4c0-7.9,2.9-12.6,8.9-12.6c5.7,0,8.8,4.3,8.8,12.6
		C457.4,701.8,454.6,706.1,448.7,706.1z M448.6,685c-3.3,0-3.8,3.8-3.8,8.6c0,5.3,0.5,8.6,3.8,8.6s3.9-3.4,3.9-8.6
		C452.5,688.7,451.9,685,448.6,685z"/>
	<path class="st6" d="M473,705.9h-11.1c-0.5,0-1-0.5-1-1v-22.4c0-0.5,0.5-1,1-1h2.8c0.5,0,1,0.5,1,1v19.1h7.3c0.5,0,1,0.5,1,1v2.3
		C474,705.4,473.5,705.9,473,705.9z"/>
	<path class="st6" d="M480.5,705.9h-3c-0.5,0-1-0.5-1-1v-22.4c0-0.5,0.5-1,1-1h3c0.5,0,1,0.5,1,1v22.4
		C481.5,705.4,481,705.9,480.5,705.9z"/>
	<path class="st6" d="M500.7,705c-1.6,0.8-3.3,1.1-5,1.1c-6.1,0-9.8-4.3-9.8-12.5c0-7.3,3.7-12.4,9.9-12.4c1.4,0,3.2,0.2,4.6,1
		c0.5,0.3,0.7,0.8,0.5,1.3l-0.9,1.9c-0.2,0.4-0.6,0.6-1.2,0.4c-0.7-0.3-1.7-0.5-2.6-0.5c-3.2,0-5.4,2.2-5.4,8.4c0,6,2,8.2,5.4,8.2
		c0.8,0,1.8-0.3,2.7-0.6c0.4-0.2,1-0.1,1.2,0.4l0.9,2.2C501.3,704.4,501,704.9,500.7,705z"/>
	<path class="st6" d="M508.9,705.9h-3c-0.5,0-1-0.5-1-1v-22.4c0-0.5,0.5-1,1-1h3c0.5,0,1,0.5,1,1v22.4
		C509.9,705.4,509.4,705.9,508.9,705.9z"/>
	<path class="st6" d="M527.3,705.9h-11.7c-0.5,0-1-0.5-1-1v-22.4c0-0.5,0.5-1,1-1H527c0.5,0,1,0.5,1,1v2.1c0,0.5-0.5,1-1,1h-7.5v5.4
		h6.7c0.5,0,1,0.5,1,1v1.9c0,0.5-0.5,1-1,1h-6.7v6.6h7.9c0.5,0,1,0.5,1,1v2.3C528.3,705.4,527.8,705.9,527.3,705.9z"/>
	<path class="st6" d="M537.3,706.1c-2.2,0-4.5-0.5-6.2-1.1c-0.5-0.2-0.7-0.7-0.6-1.2l0.5-2.3c0.1-0.5,0.8-0.8,1.3-0.6
		c1.5,0.5,3,1,4.8,1s3.4-0.8,3.4-2.7c0-2.7-3-3.5-5.6-4.8c-2.2-1.1-4.2-2.7-4.2-6.3c0-4,2.9-7,7.4-7c2,0,3.7,0.4,5,0.9
		c0.5,0.2,0.6,0.7,0.5,1.2l-0.5,2.1c-0.1,0.5-0.5,0.8-1.2,0.5c-1.1-0.4-2-0.8-3.7-0.8s-2.8,1-2.8,2.7s1.6,2.2,3.4,3.1
		c3.1,1.5,6.5,3,6.5,7.7C545.3,703.6,541.9,706.1,537.3,706.1z"/>
</g>
<g>
	<path class="st6" d="M597.7,706.6h-3.1c-0.7,0-1.3-0.3-1.6-1.2c-1.1-3.2-2.2-9.3-5.6-9.3h-0.9v9.5c0,0.5-0.5,1-1,1h-2.8
		c-0.5,0-1-0.5-1-1v-22.5c0-0.5,0.5-1,1-1h6.6c6.3,0,7.6,3.9,7.6,6.5c0,3.2-1.8,5.3-4.8,5.9c1.3,0.4,2.6,1.4,3.3,2.9
		c0.9,1.8,2.6,6.2,3.2,7.8C598.8,706,598.7,706.6,597.7,706.6z M589,686.3h-2.6v6.2h2.2c2.1,0,3.2-1.5,3.2-3.3
		C591.8,687.9,591,686.3,589,686.3z"/>
	<path class="st6" d="M614,706.6h-11.7c-0.5,0-1-0.5-1-1v-22.4c0-0.5,0.5-1,1-1h11.4c0.5,0,1,0.5,1,1v2.1c0,0.5-0.5,1-1,1h-7.5v5.4
		h6.7c0.5,0,1,0.5,1,1v1.9c0,0.5-0.5,1-1,1h-6.7v6.6h7.9c0.5,0,1,0.5,1,1v2.3C615,706.1,614.5,706.6,614,706.6z"/>
	<path class="st6" d="M635.2,709.5c-0.4,0.6-0.8,0.8-1.3,0.5c-1.8-0.9-3.2-2.2-4.4-3.9c-1,0.4-2.3,0.7-3.6,0.7
		c-5.9,0-8.9-4.3-8.9-12.4c0-7.9,2.9-12.6,8.9-12.6c5.7,0,8.8,4.3,8.8,12.6c0,3.9-0.6,7.1-2.2,9.2c1.1,1.1,2.3,1.7,3.5,2.3
		c0.5,0.3,0.8,0.8,0.5,1.4L635.2,709.5z M625.8,685.7c-3.3,0-3.8,3.8-3.8,8.6c0,5.3,0.5,8.6,3.8,8.6s3.9-3.4,3.9-8.6
		C629.6,689.4,629.1,685.7,625.8,685.7z"/>
	<path class="st6" d="M646.6,706.8c-5.4,0-8.4-2.8-8.4-8.1v-15.5c0-0.6,0.4-1,1-1h2.9c0.7,0,1,0.3,1,1v15.5c0,2.9,1,4.3,3.4,4.3
		c2.7,0,3.6-1.3,3.6-4.3v-15.5c0-0.7,0.3-1,1-1h2.9c0.6,0,1,0.4,1,1v15.5C655,704,652,706.8,646.6,706.8z"/>
	<path class="st6" d="M663.4,706.6h-3c-0.5,0-1-0.5-1-1v-22.4c0-0.5,0.5-1,1-1h3c0.5,0,1,0.5,1,1v22.4
		C664.5,706.1,664,706.6,663.4,706.6z"/>
	<path class="st6" d="M685.3,706.6h-3.1c-0.7,0-1.3-0.3-1.6-1.2c-1.1-3.2-2.2-9.3-5.6-9.3h-1v9.5c0,0.5-0.5,1-1,1h-2.8
		c-0.5,0-1-0.5-1-1v-22.5c0-0.5,0.5-1,1-1h6.6c6.3,0,7.6,3.9,7.6,6.5c0,3.2-1.8,5.3-4.8,5.9c1.3,0.4,2.6,1.4,3.3,2.9
		c0.9,1.8,2.6,6.2,3.2,7.8C686.3,706,686.3,706.6,685.3,706.6z M676.6,686.3H674v6.2h2.2c2.1,0,3.2-1.5,3.2-3.3
		C679.4,687.9,678.6,686.3,676.6,686.3z"/>
	<path class="st6" d="M701.6,706.6h-11.7c-0.5,0-1-0.5-1-1v-22.4c0-0.5,0.5-1,1-1h11.4c0.5,0,1,0.5,1,1v2.1c0,0.5-0.5,1-1,1h-7.5
		v5.4h6.7c0.5,0,1,0.5,1,1v1.9c0,0.5-0.5,1-1,1h-6.7v6.6h7.9c0.5,0,1,0.5,1,1v2.3C702.6,706.1,702.1,706.6,701.6,706.6z"/>
	<path class="st6" d="M727.6,706.6h-2.9c-0.5,0-1.2-0.5-1.2-1l-0.5-14.7c0-0.8,0-4.2,0-5.2c-0.2,1.4-0.5,4-0.8,5.2l-2.8,12.3
		c-0.1,0.5-0.7,0.9-1.3,0.9h-3c-0.5,0-1.2-0.4-1.3-0.9l-2.7-12.3c-0.3-1.1-0.6-3.8-0.8-5.2c0,0.7,0.1,4.3,0.1,5.2l-0.5,14.7
		c0,0.5-0.6,1-1.2,1H706c-0.5,0-0.9-0.5-0.9-1l1.9-22.4c0-0.5,0.6-1,1.2-1h4.1c0.5,0,1.2,0.4,1.3,0.9l2.7,13.6
		c0.2,1,0.4,3.2,0.5,4.5c0.1-1.2,0.3-3.6,0.5-4.5l2.8-13.6c0.1-0.5,0.7-0.9,1.3-0.9h4c0.5,0,1.1,0.5,1.2,1l1.9,22.4
		C728.5,706.1,728.2,706.6,727.6,706.6z"/>
	<path class="st6" d="M745,706.6h-11.7c-0.5,0-1-0.5-1-1v-22.4c0-0.5,0.5-1,1-1h11.4c0.5,0,1,0.5,1,1v2.1c0,0.5-0.5,1-1,1h-7.5v5.4
		h6.7c0.5,0,1,0.5,1,1v1.9c0,0.5-0.5,1-1,1h-6.7v6.6h7.9c0.5,0,1,0.5,1,1v2.3C746,706.1,745.5,706.6,745,706.6z"/>
	<path class="st6" d="M765.6,706.6h-4.4c-0.6,0-0.9-0.3-1.1-0.8l-4.9-12.9c-0.6-1.5-1-3.9-1.6-6.1c0.3,2.2,0.7,5.7,0.7,7.2v11.6
		c0,0.5-0.5,1-1,1h-2.6c-0.5,0-1-0.5-1-1v-22.5c0-0.5,0.5-1,1-1h4.1c0.6,0,1.4,0.3,1.5,0.8l4.5,12.4c0.5,1.5,1,3.5,1.6,5.9
		c-0.2-2.3-0.4-5-0.4-6.8V683c0-0.5,0.5-1,1-1h2.5c0.5,0,1,0.5,1,1v22.5C766.6,706.1,766.2,706.6,765.6,706.6z"/>
	<path class="st6" d="M784.2,686.5h-4.7v19c0,0.5-0.5,1-1,1h-2.8c-0.5,0-1-0.5-1-1v-19H770c-0.5,0-1-0.5-1-1v-2.4c0-0.5,0.5-1,1-1
		h14.2c0.5,0,1,0.5,1,1v2.4C785.2,686.1,784.7,686.5,784.2,686.5z"/>
	<path class="st6" d="M792.8,706.8c-2.2,0-4.5-0.5-6.2-1.1c-0.5-0.2-0.7-0.7-0.6-1.2l0.5-2.3c0.1-0.5,0.8-0.8,1.3-0.6
		c1.5,0.5,3,1,4.8,1s3.4-0.8,3.4-2.7c0-2.7-3-3.5-5.6-4.8c-2.2-1.1-4.2-2.7-4.2-6.3c0-4,2.9-7,7.4-7c2,0,3.7,0.4,5,0.9
		c0.5,0.2,0.6,0.7,0.5,1.2l-0.5,2.1c-0.1,0.5-0.5,0.8-1.2,0.5c-1.1-0.4-2-0.8-3.7-0.8s-2.8,1-2.8,2.7s1.6,2.2,3.4,3.1
		c3.1,1.5,6.5,3,6.5,7.7C800.9,704.3,797.5,706.8,792.8,706.8z"/>
</g>
<g>
	<path class="st6" d="M856.9,706.4h-3.1c-0.7,0-1.3-0.3-1.6-1.2c-1.1-3.2-2.2-9.3-5.6-9.3h-0.9v9.5c0,0.5-0.5,1-1,1h-2.8
		c-0.5,0-1-0.5-1-1v-22.5c0-0.5,0.5-1,1-1h6.6c6.3,0,7.6,3.9,7.6,6.5c0,3.2-1.8,5.3-4.8,5.9c1.3,0.4,2.6,1.4,3.3,2.9
		c0.9,1.8,2.6,6.2,3.2,7.8C857.9,705.8,857.9,706.4,856.9,706.4z M848.2,686.1h-2.6v6.2h2.2c2.1,0,3.2-1.5,3.2-3.3
		C851,687.8,850.2,686.1,848.2,686.1z"/>
	<path class="st6" d="M873.2,706.4h-11.7c-0.5,0-1-0.5-1-1V683c0-0.5,0.5-1,1-1h11.4c0.5,0,1,0.5,1,1v2.1c0,0.5-0.5,1-1,1h-7.5v5.4
		h6.7c0.5,0,1,0.5,1,1v1.9c0,0.5-0.5,1-1,1h-6.7v6.6h7.9c0.5,0,1,0.5,1,1v2.3C874.2,705.9,873.7,706.4,873.2,706.4z"/>
	<path class="st6" d="M891.9,705.8c-1.4,0.5-3.3,0.9-5.3,0.9c-7.7,0-10.3-5.3-10.3-12.5c0-7.3,3.7-12.4,9.9-12.4
		c2.4,0,4.6,0.5,6.3,1.4c0.5,0.3,0.7,0.8,0.5,1.3l-0.9,1.8c-0.3,0.6-0.8,0.7-1.3,0.5c-1.3-0.5-2.4-1-4.5-1c-3.1,0-5,2.5-5,8.6
		s1.9,8,5.3,8c0.6,0,1.2-0.1,1.6-0.2v-5.9h-2.5c-0.5,0-1-0.5-1-1v-2.1c0-0.5,0.5-1,1-1h6.3c0.5,0,1,0.5,1,1V704
		C893.1,705,893,705.4,891.9,705.8z"/>
	<path class="st6" d="M905.6,706.6c-5.4,0-8.4-2.8-8.4-8.1V683c0-0.6,0.4-1,1-1h2.9c0.7,0,1,0.3,1,1v15.5c0,2.9,1,4.3,3.4,4.3
		c2.7,0,3.6-1.3,3.6-4.3V683c0-0.7,0.3-1,1-1h2.9c0.6,0,1,0.4,1,1v15.5C914,703.8,911,706.6,905.6,706.6z"/>
	<path class="st6" d="M930.6,706.4h-11.1c-0.5,0-1-0.5-1-1V683c0-0.5,0.5-1,1-1h2.8c0.5,0,1,0.5,1,1v19.1h7.3c0.5,0,1,0.5,1,1v2.3
		C931.7,705.9,931.2,706.4,930.6,706.4z"/>
	<path class="st6" d="M950.8,706.4h-3.2c-0.6,0-1.1-0.3-1.3-0.9l-1.2-4.5h-7l-1.1,4.5c-0.1,0.5-0.6,0.9-1.3,0.9h-3
		c-0.7,0-1-0.6-0.8-1.3l6.3-22.3c0.1-0.5,0.7-0.9,1.3-0.9h4.1c0.5,0,1.1,0.4,1.3,0.9l6.7,22.3C951.8,705.8,951.6,706.4,950.8,706.4z
		 M942.1,688.2c-0.3-1.1-0.4-2.8-0.5-3.8c-0.1,1-0.3,2.7-0.5,3.8l-1.9,8.4h4.9L942.1,688.2z"/>
	<path class="st6" d="M965.4,686.4h-4.7v19c0,0.5-0.5,1-1,1h-2.8c-0.5,0-1-0.5-1-1v-19h-4.7c-0.5,0-1-0.5-1-1V683c0-0.5,0.5-1,1-1
		h14.2c0.5,0,1,0.5,1,1v2.4C966.4,685.9,965.9,686.4,965.4,686.4z"/>
	<path class="st6" d="M973.2,706.4h-3c-0.5,0-1-0.5-1-1V683c0-0.5,0.5-1,1-1h3c0.5,0,1,0.5,1,1v22.4
		C974.2,705.9,973.7,706.4,973.2,706.4z"/>
	<path class="st6" d="M986.8,706.6c-5.9,0-8.9-4.3-8.9-12.4c0-7.9,2.9-12.6,8.9-12.6c5.7,0,8.8,4.3,8.8,12.6
		C995.5,702.3,992.7,706.6,986.8,706.6z M986.8,685.5c-3.3,0-3.8,3.8-3.8,8.6c0,5.3,0.5,8.6,3.8,8.6s3.9-3.4,3.9-8.6
		C990.6,689.2,990,685.5,986.8,685.5z"/>
	<path class="st6" d="M1014.8,706.4h-4.4c-0.6,0-0.9-0.3-1.1-0.8l-4.9-12.9c-0.6-1.5-1-3.9-1.6-6.1c0.3,2.2,0.7,5.7,0.7,7.2v11.6
		c0,0.5-0.5,1-1,1h-2.6c-0.5,0-1-0.5-1-1v-22.5c0-0.5,0.5-1,1-1h4.1c0.6,0,1.4,0.3,1.5,0.8l4.5,12.4c0.5,1.5,1,3.5,1.6,5.9
		c-0.2-2.3-0.4-5-0.4-6.8v-11.4c0-0.5,0.5-1,1-1h2.5c0.5,0,1,0.5,1,1v22.5C1015.8,705.9,1015.4,706.4,1014.8,706.4z"/>
	<path class="st6" d="M1025.8,706.6c-2.2,0-4.5-0.5-6.2-1.1c-0.5-0.2-0.7-0.7-0.6-1.2l0.5-2.3c0.1-0.5,0.8-0.8,1.3-0.6
		c1.5,0.5,3,1,4.8,1s3.4-0.8,3.4-2.7c0-2.7-3-3.5-5.6-4.8c-2.2-1.1-4.2-2.7-4.2-6.3c0-4,2.9-7,7.4-7c2,0,3.7,0.4,5,0.9
		c0.5,0.2,0.6,0.7,0.5,1.2l-0.5,2.1c-0.1,0.5-0.5,0.8-1.2,0.5c-1.1-0.4-2-0.8-3.7-0.8s-2.8,1-2.8,2.7s1.6,2.2,3.4,3.1
		c3.1,1.5,6.5,3,6.5,7.7C1033.8,704.1,1030.4,706.6,1025.8,706.6z"/>
</g>
<g>
	<path class="st6" d="M104.7,706.4h-3.1c-0.7,0-1.3-0.3-1.6-1.2c-1.1-3.2-2.2-9.3-5.6-9.3h-0.9v9.5c0,0.5-0.5,1-1,1h-2.8
		c-0.5,0-1-0.5-1-1v-22.5c0-0.5,0.5-1,1-1h6.6c6.3,0,7.6,3.9,7.6,6.5c0,3.2-1.8,5.3-4.8,5.9c1.3,0.4,2.6,1.4,3.3,2.9
		c0.9,1.8,2.6,6.2,3.2,7.8C105.7,705.8,105.6,706.4,104.7,706.4z M95.9,686.1h-2.6v6.2h2.2c2.1,0,3.2-1.5,3.2-3.3
		C98.8,687.8,98,686.1,95.9,686.1z"/>
	<path class="st6" d="M116.4,706.6c-5.4,0-8.4-2.8-8.4-8.1V683c0-0.6,0.4-1,1-1h2.9c0.7,0,1,0.3,1,1v15.5c0,2.9,1,4.3,3.4,4.3
		c2.7,0,3.6-1.3,3.6-4.3V683c0-0.7,0.3-1,1-1h2.9c0.6,0,1,0.4,1,1v15.5C124.7,703.8,121.8,706.6,116.4,706.6z"/>
	<path class="st6" d="M141.4,706.4h-11.1c-0.5,0-1-0.5-1-1V683c0-0.5,0.5-1,1-1h2.8c0.5,0,1,0.5,1,1v19.1h7.3c0.5,0,1,0.5,1,1v2.3
		C142.4,705.9,142,706.4,141.4,706.4z"/>
	<path class="st6" d="M157.1,706.4h-11.7c-0.5,0-1-0.5-1-1V683c0-0.5,0.5-1,1-1h11.4c0.5,0,1,0.5,1,1v2.1c0,0.5-0.5,1-1,1h-7.5v5.4
		h6.7c0.5,0,1,0.5,1,1v1.9c0,0.5-0.5,1-1,1h-6.7v6.6h7.9c0.5,0,1,0.5,1,1v2.3C158.1,705.9,157.6,706.4,157.1,706.4z"/>
	<path class="st6" d="M167.1,706.6c-2.2,0-4.5-0.5-6.2-1.1c-0.5-0.2-0.7-0.7-0.6-1.2l0.5-2.3c0.1-0.5,0.8-0.8,1.3-0.6
		c1.5,0.5,3,1,4.8,1s3.4-0.8,3.4-2.7c0-2.7-3-3.5-5.6-4.8c-2.2-1.1-4.2-2.7-4.2-6.3c0-4,2.9-7,7.4-7c2,0,3.7,0.4,5,0.9
		c0.5,0.2,0.6,0.7,0.5,1.2L173,686c-0.1,0.5-0.5,0.8-1.2,0.5c-1.1-0.4-2-0.8-3.7-0.8s-2.8,1-2.8,2.7s1.6,2.2,3.4,3.1
		c3.1,1.5,6.5,3,6.5,7.7C175.1,704.1,171.7,706.6,167.1,706.6z"/>
</g>
<g>
	<path class="st6" d="M1083.6,686.4h-4.7v19c0,0.5-0.5,1-1,1h-2.8c-0.5,0-1-0.5-1-1v-19h-4.7c-0.5,0-1-0.5-1-1V683c0-0.5,0.5-1,1-1
		h14.2c0.5,0,1,0.5,1,1v2.4C1084.6,685.9,1084.2,686.4,1083.6,686.4z"/>
	<path class="st6" d="M1103.2,706.4h-3.1c-0.7,0-1.3-0.3-1.6-1.2c-1.1-3.2-2.2-9.3-5.6-9.3h-0.9v9.5c0,0.5-0.5,1-1,1h-2.8
		c-0.5,0-1-0.5-1-1v-22.5c0-0.5,0.5-1,1-1h6.6c6.3,0,7.6,3.9,7.6,6.5c0,3.2-1.8,5.3-4.8,5.9c1.3,0.4,2.6,1.4,3.3,2.9
		c0.9,1.8,2.6,6.2,3.2,7.8C1104.2,705.8,1104.1,706.4,1103.2,706.4z M1094.4,686.1h-2.6v6.2h2.2c2.1,0,3.2-1.5,3.2-3.3
		C1097.3,687.8,1096.5,686.1,1094.4,686.1z"/>
	<path class="st6" d="M1123.8,706.4h-3.2c-0.6,0-1.1-0.3-1.3-0.9l-1.2-4.5h-7l-1.1,4.5c-0.1,0.5-0.6,0.9-1.3,0.9h-3
		c-0.7,0-1-0.6-0.8-1.3l6.3-22.3c0.1-0.5,0.7-0.9,1.3-0.9h4.1c0.5,0,1.1,0.4,1.3,0.9l6.7,22.3
		C1124.8,705.8,1124.5,706.4,1123.8,706.4z M1115.1,688.2c-0.3-1.1-0.4-2.8-0.5-3.8c-0.1,1-0.3,2.7-0.5,3.8l-1.9,8.4h4.9
		L1115.1,688.2z"/>
	<path class="st6" d="M1143.1,706.4h-4.4c-0.6,0-0.9-0.3-1.1-0.8l-4.9-12.9c-0.6-1.5-1-3.9-1.6-6.1c0.3,2.2,0.7,5.7,0.7,7.2v11.6
		c0,0.5-0.5,1-1,1h-2.6c-0.5,0-1-0.5-1-1v-22.5c0-0.5,0.5-1,1-1h4.1c0.6,0,1.4,0.3,1.5,0.8l4.5,12.4c0.5,1.5,1,3.5,1.6,5.9
		c-0.2-2.3-0.4-5-0.4-6.8v-11.4c0-0.5,0.5-1,1-1h2.5c0.5,0,1,0.5,1,1v22.5C1144.1,705.9,1143.7,706.4,1143.1,706.4z"/>
	<path class="st6" d="M1154.1,706.6c-2.2,0-4.5-0.5-6.2-1.1c-0.5-0.2-0.7-0.7-0.6-1.2l0.5-2.3c0.1-0.5,0.8-0.8,1.3-0.6
		c1.5,0.5,3,1,4.8,1s3.4-0.8,3.4-2.7c0-2.7-3-3.5-5.6-4.8c-2.2-1.1-4.2-2.7-4.2-6.3c0-4,2.9-7,7.4-7c2,0,3.7,0.4,5,0.9
		c0.5,0.2,0.6,0.7,0.5,1.2l-0.5,2.1c-0.1,0.5-0.5,0.8-1.2,0.5c-1.1-0.4-2-0.8-3.7-0.8s-2.8,1-2.8,2.7s1.6,2.2,3.4,3.1
		c3.1,1.5,6.5,3,6.5,7.7C1162.1,704.1,1158.7,706.6,1154.1,706.6z"/>
	<path class="st6" d="M1173,696.6h-3v8.8c0,0.5-0.5,1-1,1h-2.8c-0.5,0-1-0.5-1-1V683c0-0.5,0.5-1,1-1h6.8c4.9,0,7.5,2.8,7.5,7.3
		C1180.5,693.7,1177.3,696.6,1173,696.6z M1172.6,686.1h-2.6v6.4h2.6c1.9,0,3.1-1.3,3.1-3.2C1175.7,687.3,1174.7,686.1,1172.6,686.1
		z"/>
	<path class="st6" d="M1198.7,706.4h-3.2c-0.6,0-1.1-0.3-1.3-0.9l-1.2-4.5h-7l-1.1,4.5c-0.1,0.5-0.6,0.9-1.3,0.9h-3
		c-0.7,0-1-0.6-0.8-1.3l6.3-22.3c0.1-0.5,0.7-0.9,1.3-0.9h4.1c0.5,0,1.1,0.4,1.3,0.9l6.7,22.3
		C1199.7,705.8,1199.4,706.4,1198.7,706.4z M1190,688.2c-0.3-1.1-0.4-2.8-0.5-3.8c-0.1,1-0.3,2.7-0.5,3.8l-1.9,8.4h4.9L1190,688.2z"
		/>
	<path class="st6" d="M1218.3,706.4h-3.1c-0.7,0-1.3-0.3-1.6-1.2c-1.1-3.2-2.2-9.3-5.6-9.3h-0.9v9.5c0,0.5-0.5,1-1,1h-2.8
		c-0.5,0-1-0.5-1-1v-22.5c0-0.5,0.5-1,1-1h6.6c6.3,0,7.6,3.9,7.6,6.5c0,3.2-1.8,5.3-4.8,5.9c1.3,0.4,2.6,1.4,3.3,2.9
		c0.9,1.8,2.6,6.2,3.2,7.8C1219.3,705.8,1219.3,706.4,1218.3,706.4z M1209.6,686.1h-2.6v6.2h2.2c2.1,0,3.2-1.5,3.2-3.3
		C1212.4,687.8,1211.6,686.1,1209.6,686.1z"/>
	<path class="st6" d="M1234.6,706.4h-11.7c-0.5,0-1-0.5-1-1V683c0-0.5,0.5-1,1-1h11.4c0.5,0,1,0.5,1,1v2.1c0,0.5-0.5,1-1,1h-7.5v5.4
		h6.7c0.5,0,1,0.5,1,1v1.9c0,0.5-0.5,1-1,1h-6.7v6.6h7.9c0.5,0,1,0.5,1,1v2.3C1235.6,705.9,1235.1,706.4,1234.6,706.4z"/>
	<path class="st6" d="M1255.2,706.4h-4.4c-0.6,0-0.9-0.3-1.1-0.8l-4.9-12.9c-0.6-1.5-1-3.9-1.6-6.1c0.3,2.2,0.7,5.7,0.7,7.2v11.6
		c0,0.5-0.5,1-1,1h-2.6c-0.5,0-1-0.5-1-1v-22.5c0-0.5,0.5-1,1-1h4.1c0.6,0,1.4,0.3,1.5,0.8l4.5,12.4c0.5,1.5,1,3.5,1.6,5.9
		c-0.2-2.3-0.4-5-0.4-6.8v-11.4c0-0.5,0.5-1,1-1h2.5c0.5,0,1,0.5,1,1v22.5C1256.2,705.9,1255.7,706.4,1255.2,706.4z"/>
	<path class="st6" d="M1274.3,705.5c-1.6,0.8-3.3,1.1-5,1.1c-6.1,0-9.8-4.3-9.8-12.5c0-7.3,3.7-12.4,9.9-12.4c1.4,0,3.2,0.2,4.6,1
		c0.5,0.3,0.7,0.8,0.5,1.3l-0.9,1.9c-0.2,0.4-0.6,0.6-1.2,0.4c-0.7-0.3-1.7-0.5-2.6-0.5c-3.2,0-5.4,2.2-5.4,8.4c0,6,2,8.2,5.4,8.2
		c0.8,0,1.8-0.3,2.7-0.6c0.4-0.2,1-0.1,1.2,0.4l0.9,2.2C1274.8,704.9,1274.6,705.4,1274.3,705.5z"/>
	<path class="st6" d="M1287.4,696.7v8.7c0,0.5-0.5,1-1,1h-2.8c-0.5,0-1-0.5-1-1v-8.5l-6.5-13.6c-0.4-0.7-0.1-1.3,0.7-1.3h3.5
		c0.7,0,1.3,0.3,1.4,0.8l2.7,7.6c0.4,1.1,0.6,2.6,0.7,3.6c0.1-1,0.3-2.5,0.7-3.6l2.8-7.6c0.2-0.5,0.8-0.8,1.4-0.8h3
		c0.8,0,1,0.6,0.7,1.3L1287.4,696.7z"/>
</g>
<g>
	<path class="st6" d="M226.5,706.6c-2.2,0-4.5-0.5-6.2-1.1c-0.5-0.2-0.7-0.7-0.6-1.2l0.5-2.3c0.1-0.5,0.8-0.8,1.3-0.6
		c1.5,0.5,3,1,4.8,1s3.4-0.8,3.4-2.7c0-2.7-3-3.5-5.6-4.8c-2.2-1.1-4.2-2.7-4.2-6.3c0-4,2.9-7,7.4-7c2,0,3.7,0.4,5,0.9
		c0.5,0.2,0.6,0.7,0.5,1.2l-0.5,2.1c-0.1,0.5-0.5,0.8-1.2,0.5c-1.1-0.4-2-0.8-3.7-0.8s-2.8,1-2.8,2.7s1.6,2.2,3.4,3.1
		c3.1,1.5,6.5,3,6.5,7.7C234.6,704.1,231.2,706.6,226.5,706.6z"/>
	<path class="st6" d="M250,686.4h-4.7v19c0,0.5-0.5,1-1,1h-2.8c-0.5,0-1-0.5-1-1v-19h-4.7c-0.5,0-1-0.5-1-1V683c0-0.5,0.5-1,1-1H250
		c0.5,0,1,0.5,1,1v2.4C251,685.9,250.5,686.4,250,686.4z"/>
	<path class="st6" d="M268.4,706.4h-3.2c-0.6,0-1.1-0.3-1.3-0.9l-1.2-4.5h-7l-1.1,4.5c-0.1,0.5-0.6,0.9-1.3,0.9h-3
		c-0.7,0-1-0.6-0.8-1.3l6.3-22.3c0.1-0.5,0.7-0.9,1.3-0.9h4.1c0.5,0,1.1,0.4,1.3,0.9l6.7,22.3C269.4,705.8,269.1,706.4,268.4,706.4z
		 M259.6,688.2c-0.3-1.1-0.4-2.8-0.5-3.8c-0.1,1-0.3,2.7-0.5,3.8l-1.9,8.4h4.9L259.6,688.2z"/>
	<path class="st6" d="M287.7,706.4h-4.4c-0.6,0-0.9-0.3-1.1-0.8l-4.9-12.9c-0.6-1.5-1-3.9-1.6-6.1c0.3,2.2,0.7,5.7,0.7,7.2v11.6
		c0,0.5-0.5,1-1,1h-2.6c-0.5,0-1-0.5-1-1v-22.5c0-0.5,0.5-1,1-1h4.1c0.6,0,1.4,0.3,1.5,0.8l4.5,12.4c0.5,1.5,1,3.5,1.6,5.9
		c-0.2-2.3-0.4-5-0.4-6.8v-11.4c0-0.5,0.5-1,1-1h2.5c0.5,0,1,0.5,1,1v22.5C288.7,705.9,288.2,706.4,287.7,706.4z"/>
	<path class="st6" d="M301.1,706.4h-6.7c-0.5,0-1-0.5-1-1V683c0-0.5,0.5-1,1-1h6.5c3.4,0,8.8,1.3,8.8,12.2
		C309.7,701.3,307.9,706.4,301.1,706.4z M300.1,685.9h-1.8v16.4h1.7c3.5,0,4.7-2,4.7-8.2C304.6,688.7,303.5,685.9,300.1,685.9z"/>
	<path class="st6" d="M329.1,706.4h-3.2c-0.6,0-1.1-0.3-1.3-0.9l-1.2-4.5h-7l-1.1,4.5c-0.1,0.5-0.6,0.9-1.3,0.9h-3
		c-0.7,0-1-0.6-0.8-1.3l6.3-22.3c0.1-0.5,0.7-0.9,1.3-0.9h4.1c0.5,0,1.1,0.4,1.3,0.9l6.7,22.3C330.2,705.8,329.9,706.4,329.1,706.4z
		 M320.4,688.2c-0.3-1.1-0.4-2.8-0.5-3.8c-0.1,1-0.3,2.7-0.5,3.8l-1.9,8.4h4.9L320.4,688.2z"/>
	<path class="st6" d="M348.8,706.4h-3.1c-0.7,0-1.3-0.3-1.6-1.2c-1.1-3.2-2.2-9.3-5.6-9.3h-0.9v9.5c0,0.5-0.5,1-1,1h-2.8
		c-0.5,0-1-0.5-1-1v-22.5c0-0.5,0.5-1,1-1h6.6c6.3,0,7.6,3.9,7.6,6.5c0,3.2-1.8,5.3-4.8,5.9c1.3,0.4,2.6,1.4,3.3,2.9
		c0.9,1.8,2.6,6.2,3.2,7.8C349.8,705.8,349.7,706.4,348.8,706.4z M340,686.1h-2.6v6.2h2.2c2.1,0,3.2-1.5,3.2-3.3
		C342.8,687.8,342,686.1,340,686.1z"/>
	<path class="st6" d="M360.1,706.4h-6.7c-0.5,0-1-0.5-1-1V683c0-0.5,0.5-1,1-1h6.5c3.4,0,8.8,1.3,8.8,12.2
		C368.6,701.3,366.8,706.4,360.1,706.4z M359,685.9h-1.8v16.4h1.7c3.5,0,4.7-2,4.7-8.2C363.6,688.7,362.4,685.9,359,685.9z"/>
	<path class="st6" d="M377,706.6c-2.2,0-4.5-0.5-6.2-1.1c-0.5-0.2-0.7-0.7-0.6-1.2l0.5-2.3c0.1-0.5,0.8-0.8,1.3-0.6
		c1.5,0.5,3,1,4.8,1s3.4-0.8,3.4-2.7c0-2.7-3-3.5-5.6-4.8c-2.2-1.1-4.2-2.7-4.2-6.3c0-4,2.9-7,7.4-7c2,0,3.7,0.4,5,0.9
		c0.5,0.2,0.6,0.7,0.5,1.2L383,686c-0.1,0.5-0.5,0.8-1.2,0.5c-1.1-0.4-2-0.8-3.7-0.8s-2.8,1-2.8,2.7s1.6,2.2,3.4,3.1
		c3.1,1.5,6.5,3,6.5,7.7C385.1,704.1,381.7,706.6,377,706.6z"/>
</g>
<g>
	<path class="st6" d="M1346.8,706.6h-11.1c-0.5,0-1-0.5-1-1v-22.4c0-0.5,0.5-1,1-1h2.8c0.5,0,1,0.5,1,1v19.1h7.3c0.5,0,1,0.5,1,1
		v2.3C1347.8,706.2,1347.4,706.6,1346.8,706.6z"/>
	<path class="st6" d="M1367,706.6h-3.2c-0.6,0-1.1-0.3-1.3-0.9l-1.2-4.5h-7l-1.1,4.5c-0.1,0.5-0.6,0.9-1.3,0.9h-3
		c-0.7,0-1-0.6-0.8-1.3l6.3-22.3c0.1-0.5,0.7-0.9,1.3-0.9h4.1c0.5,0,1.1,0.4,1.3,0.9l6.7,22.3C1368,706,1367.7,706.6,1367,706.6z
		 M1358.3,688.5c-0.3-1.1-0.4-2.8-0.5-3.8c-0.1,1-0.3,2.7-0.5,3.8l-1.9,8.4h4.9L1358.3,688.5z"/>
	<path class="st6" d="M1392.5,705.7c-0.1,0.5-0.7,0.9-1.3,0.9h-4.6c-0.5,0-1.2-0.4-1.3-0.9l-2.8-16.3c-0.1-0.9-0.3-3.5-0.4-4.6
		c-0.1,1-0.2,3.6-0.4,4.6l-2.7,16.2c-0.1,0.5-0.7,0.9-1.3,0.9h-4.6c-0.5,0-1.2-0.4-1.3-0.9l-3.7-22.3c-0.1-0.6,0.1-1.3,0.8-1.3h3.3
		c0.7,0,1.2,0.4,1.3,1.1l1.7,15.2c0.1,1.2,0.3,3.6,0.4,5.1c0.2-1.5,0.4-3.7,0.6-5.1l2.6-15.2c0.1-0.7,0.6-1,1.3-1h4.1
		c0.7,0,1.2,0.4,1.3,1l2.7,15.2c0.3,1.5,0.5,3.4,0.6,5.2c0.1-1.4,0.3-3.9,0.4-5l1.5-15.3c0.1-0.7,0.6-1,1.2-1h2.8
		c0.7,0,0.9,0.6,0.8,1.3L1392.5,705.7z"/>
</g>
<g>
	
		<rect x="338.4" y="608.2" transform="matrix(0.8092 -0.5875 0.5875 0.8092 -305.4943 322.4987)" class="st4" width="10.9" height="46.9"/>
	<polygon class="st4" points="328.1,610 324.1,612.9 323.6,608.1 323.1,603.2 327.6,605.2 332.1,607.2 	"/>
</g>
<g>
	<path class="st6" d="M1383.4,586.8c-6.8,0-12.4-5.6-12.3-12.5c0-6.8,5.6-12.4,12.5-12.3c6.8,0,12.4,5.6,12.3,12.5
		C1395.9,581.3,1390.3,586.8,1383.4,586.8z"/>
	<path class="st6" d="M1343.1,591.4c1.3-1.9,2.5-2.8,2.5-2.8s27.5,0.2,27.6,0.3c1.3,0.7,6.5,3.8,11.1,3.6c3.9-0.2,10.1-4.1,10.1-4.1
		s9.5,4.3,11.6,5.3c0.4,0.2,5,12,5.7,14.2c0.6,2.2,3.3,10.8,2.6,18.4c-0.7,7.7-9.4,1-9.4,1l-2.1-14.4l-4.8-6.8l4.8,58.4h-17.5
		l-1.4-29.1h-4l-0.3,29.1H1362l7.5-61.3c0,0,0.2,1.5,0.6-0.6l-25.3-4.7C1344.9,597.8,1341.8,593.3,1343.1,591.4z"/>
</g>
<g>
	<path class="st4" d="M1338.6,638.4c2.5,2.3,3.8,5.9,3.9,10.1c0.1,7.8-5.2,14.1-18.2,14.3c-2.6,0-7.6-0.9-9.7-1.6
		c-1-0.3-1.4-0.9-1.2-1.9l1.1-6.4c0.2-1.2,1-1.8,2.2-1.3c1.7,0.6,5.9,1.6,8.2,1.6c4-0.1,6.8-1.6,6.7-4.5c-0.1-4.8-5.4-6.7-10.7-9.5
		c-4.9-2.5-9.2-5.7-9.3-12.3c-0.1-4.3,2.9-8.5,6.4-9.8c-2.5-2.4-4.1-6.4-4.1-10.3c-0.1-8.3,6.6-13.8,16.6-13.9
		c3.4,0,6.3,0.9,8.7,1.5c0.7,0.2,1.4,1,1.1,2.2l-1.5,5.8c-0.2,0.9-0.6,1.5-1.8,1.1c-2.3-0.8-4.6-1.3-6.9-1.3
		c-3.9,0.1-5.7,2.3-5.7,4.6c0.1,3.9,5.5,6,10.8,9c4.7,2.8,8.9,6.2,9,13.1C1344.3,633.4,1342.2,636.7,1338.6,638.4z M1324.7,621.4
		c-1.4,0.8-2.6,2.1-2.5,3.7c0.1,4.3,4.7,6.1,9.6,8.7c1.2-1.1,2-2.7,2-4.1C1333.7,625.5,1329.3,623.9,1324.7,621.4z"/>
</g>
<g>
	<polygon class="st4" points="492.9,577.9 495.2,604.2 536.9,590.2 	"/>
	<g>
		<polyline class="st10" points="492.6,646.5 492.9,575.9 541.4,591.7 493.5,607.3 		"/>
		<line class="st10" x1="481" y1="645.6" x2="505.4" y2="645.7"/>
		<g>
			<polyline class="st11" points="474.4,663.9 474.7,593.3 523.1,609.1 475.3,624.7 			"/>
			<line class="st10" x1="462.8" y1="663" x2="487.2" y2="663.1"/>
		</g>
	</g>
</g>
<g>
	<g>
		<rect x="887.7" y="568" class="st6" width="27.8" height="100.1"/>
		<circle class="st0" cx="901.6" cy="647" r="7"/>
		<rect x="895.6" y="581.3" class="st0" width="12" height="36.3"/>
		<line class="st12" x1="894.5" y1="593.1" x2="908.7" y2="593.1"/>
	</g>
	<g>
		<rect x="920.8" y="568" class="st4" width="27.8" height="100.1"/>
		<circle class="st0" cx="934.6" cy="647" r="7"/>
		<rect x="928.6" y="581.3" class="st0" width="12" height="36.3"/>
		<line class="st13" x1="927.5" y1="593.1" x2="941.7" y2="593.1"/>
	</g>
	<g>
		<rect x="954.4" y="568" class="st6" width="27.8" height="100.1"/>
		<circle class="st0" cx="968.3" cy="647" r="7"/>
		<rect x="962.2" y="581.3" class="st0" width="12" height="36.3"/>
		<line class="st12" x1="961.1" y1="593.1" x2="975.4" y2="593.1"/>
	</g>
</g>
<g>
	<path class="st4" d="M1187.8,661l29.8-43c0.3-0.4,0.5-0.9,0.7-1.4c5.3,2.4,11,3.2,16.5,2.6c8.5-1,16.5-5.5,21.8-13.1
		c4.5-6.5,6.2-14,5.3-21.3c-1-8.5-5.5-16.5-13.1-21.8c-6.5-4.5-14-6.2-21.3-5.3c-8.5,1-16.5,5.5-21.8,13.1c-4.5,6.5-6.2,14-5.3,21.3
		l0,0c0.8,6.7,3.8,13.1,8.7,18.1c-0.4,0.3-0.8,0.7-1.1,1.2l-29.8,43c-0.8,1.2-1.2,2.6-1,4l0,0c0.2,1.6,1,3.1,2.5,4.1
		c1.2,0.8,2.6,1.2,4,1C1185.3,663.3,1186.9,662.4,1187.8,661z M1205.7,591.4c-0.7-6,0.7-12.3,4.4-17.7c4.4-6.3,11-10,18.1-10.9
		c6-0.7,12.3,0.7,17.7,4.4c6.3,4.4,10,11,10.9,18.1c0.7,6-0.7,12.3-4.4,17.7c-4.4,6.3-11,10-18.1,10.9c-6,0.7-12.3-0.7-17.7-4.4
		C1210.3,605.2,1206.5,598.5,1205.7,591.4z"/>
	<g>
		<path class="st6" d="M1179.1,620.2c-3.1,5.3-6.8,9.8-11.2,13.5c-10.6,9-23.5,13.3-38.9,13s-28.2-5.1-38.4-14.5
			c-4.2-3.9-7.8-8.5-10.7-13.9c3.1-5.3,6.9-9.8,11.3-13.6c10.6-9,23.6-13.3,39-13s28.2,5.1,38.4,14.5
			C1172.7,610.2,1176.2,614.8,1179.1,620.2z M1147.8,619.6c0.1-4.9-1.6-9.2-5.1-12.8s-7.8-5.4-12.9-5.5c-2.7-0.1-5.2,0.4-7.6,1.5
			l-1.8-4.4c-14,2.1-24.4,8.8-31.1,20.1c1.8,3.4,4,6.3,6.7,9c6.3,6.3,14.2,10.4,23.5,12.2c-4-1.9-7.2-4.7-9.6-8.5
			c-2.4-3.7-3.6-7.9-3.5-12.4c0.1-2.7,0.6-5.4,1.6-8l4.6,1.5c-0.9,2.1-1.4,4.3-1.4,6.5c-0.1,5,1.6,9.2,5.1,12.8s7.8,5.4,12.9,5.5
			s9.4-1.6,13.1-5C1145.8,628.8,1147.7,624.6,1147.8,619.6z M1143.3,619.6c-0.1,3.7-1.5,6.9-4.3,9.5s-6.1,3.9-9.9,3.8
			c-3.9-0.1-7.1-1.5-9.8-4.2c-2.6-2.7-3.9-5.9-3.9-9.7c0-1.7,0.4-3.3,1-4.8l14,6.7l-6.4-14.2c1.8-0.7,3.6-1.1,5.5-1.1
			c3.8,0.1,7.1,1.5,9.7,4.2C1142.1,612.6,1143.4,615.8,1143.3,619.6z M1169.6,620.1c-1.8-3.4-4.1-6.4-6.7-9
			c-6.4-6.4-14.3-10.4-23.7-12.2c4.1,1.9,7.4,4.6,9.8,8.3c2.5,3.8,3.7,8,3.6,12.6c-0.1,4.5-1.4,8.6-4,12.2c-2.6,3.7-5.9,6.3-10,8.1
			C1152.7,637.9,1163,631.3,1169.6,620.1z"/>
	</g>
</g>
<g>
	<line class="st1" x1="233.4" y1="389.4" x2="138.1" y2="389.4"/>
	<path class="st2" d="M144.9,538c0,5.3-4.3,9.6-9.6,9.6s-9.6-4.3-9.6-9.6s4.3-9.6,9.6-9.6C140.6,528.4,144.9,532.7,144.9,538z"/>
	<line class="st1" x1="135.2" y1="394.8" x2="135.2" y2="533.9"/>
</g>
<g>
	<line class="st1" x1="1266.6" y1="389.4" x2="1362" y2="389.4"/>
	<path class="st2" d="M1355.2,538c0,5.3,4.3,9.6,9.7,9.6c5.3,0,9.6-4.3,9.6-9.6s-4.3-9.6-9.6-9.6
		C1359.5,528.4,1355.2,532.7,1355.2,538z"/>
	<line class="st1" x1="1364.9" y1="394.8" x2="1364.9" y2="533.9"/>
</g>
<g>
	<path class="st14" d="M332.8,445.8c-9,4.6-18.3,6.2-27.9,6.2c-33.5,0-54.4-23.9-54.4-69.2c0-40.5,20.5-68.8,54.8-68.8
		c7.8,0,17.7,1,25.7,5.6c2.8,1.6,4,4.4,2.6,7.2l-5.2,10.6c-1.2,2.4-3.6,3.4-6.4,2.2c-4-1.8-9.2-3-14.2-3
		c-17.7,0-29.7,12.4-29.7,46.5c0,33.1,11.2,45.5,30.1,45.5c4.2,0,10.2-1.6,14.8-3.6c2.4-1,5.4-0.4,6.4,2l5.2,12.2
		C336,442.2,334.6,444.8,332.8,445.8z"/>
	<path class="st14" d="M391.4,452c-32.5,0-49-23.7-49-68.4c0-43.9,16.1-69.6,49-69.6c31.7,0,48.4,23.5,48.4,69.6
		C439.8,427.6,424.1,452,391.4,452z M391.2,334.9c-18.3,0-21.1,20.9-21.1,47.8c0,29.3,3,47.6,21.1,47.6c18.3,0,21.3-18.5,21.3-47.6
		C412.5,355.7,409.3,334.9,391.2,334.9z"/>
	<path class="st14" d="M578,450.6h-16.1c-3,0-6.4-2.6-6.4-5.6l-2.6-81.5c-0.2-4.2,0.2-23.1,0.2-28.5c-1,7.6-2.6,21.9-4.2,28.5
		l-15.6,67.8c-0.6,3-4,5-7,5h-16.7c-3,0-6.4-2-7-5l-14.8-67.8c-1.4-6-3.2-20.9-4.4-28.5c0,4,0.6,23.9,0.4,28.5l-3,81.5
		c-0.2,3-3.4,5.6-6.4,5.6h-15.9c-3,0-5-2.6-4.8-5.6l10.8-124c0.2-3,3.4-5.6,6.4-5.6h22.7c3,0,6.4,2,7,5l15.2,75
		c1,5.4,2,17.9,2.6,24.9c0.6-6.8,1.6-20.1,2.6-24.9l15.7-75c0.6-3,4-5,7-5h22.1c3,0,6.2,2.6,6.4,5.6l10.6,124
		C582.9,448,581,450.6,578,450.6z"/>
	<path class="st14" d="M646.9,396.5h-16.3V445c0,3-2.6,5.6-5.6,5.6h-15.7c-3,0-5.6-2.6-5.6-5.6V321c0-3,2.6-5.6,5.6-5.6h37.5
		c27.1,0,41.7,15.6,41.7,40.5C688.4,380.6,670.9,396.5,646.9,396.5z M644.9,338.3h-14.4v35.3h14.4c10.6,0,16.9-7.2,16.9-17.7
		C661.9,344.7,656.1,338.3,644.9,338.3z"/>
	<path class="st14" d="M772.9,450.6h-61.6c-3,0-5.6-2.6-5.6-5.6V321c0-3,2.6-5.6,5.6-5.6H727c3,0,5.6,2.6,5.6,5.6v105.7h40.3
		c3,0,5.6,2.6,5.6,5.6V445C778.5,448,775.9,450.6,772.9,450.6z"/>
	<path class="st14" d="M814.6,450.6H798c-3,0-5.6-2.6-5.6-5.6V321c0-3,2.6-5.6,5.6-5.6h16.5c3,0,5.6,2.6,5.6,5.6v124
		C820.2,448,817.6,450.6,814.6,450.6z"/>
	<path class="st14" d="M943.5,450.6h-17.9c-3.4,0-6.2-1.8-7-5l-6.4-24.9h-38.9l-6,24.9c-0.8,3-3.6,5-7,5h-16.5c-4,0-5.6-3.4-4.6-7
		l34.7-123.2c0.8-3,4-5,7-5h22.9c3,0,6,2,7,5l37.3,123.2C949.1,447.2,947.5,450.6,943.5,450.6z M895.3,350.1c-1.4-6-2.4-15.7-3-21.1
		c-0.4,5.6-1.6,15-3,21.1l-10.4,46.7h27.3L895.3,350.1z"/>
	<path class="st14" d="M1050.6,450.6h-24.1c-3.2,0-5.2-1.8-6.2-4.6l-26.9-71.4c-3.2-8.2-5.8-21.3-9-33.5c1.4,12.4,3.8,31.7,3.8,40.1
		v64c0,2.8-2.6,5.4-5.6,5.4h-14.4c-3,0-5.6-2.6-5.6-5.4V320.8c0-2.8,2.6-5.4,5.6-5.4h22.5c3.2,0,7.6,1.8,8.6,4.6l24.9,68.6
		c3,8.4,5.4,19.5,9,32.5c-1.2-13-2.2-27.5-2.2-37.5v-62.8c0-2.8,2.6-5.4,5.6-5.4h14c3,0,5.6,2.6,5.6,5.4v124.4
		C1056.2,448,1053.6,450.6,1050.6,450.6z"/>
	<path class="st14" d="M1156,445.8c-9,4.6-18.3,6.2-27.9,6.2c-33.5,0-54.4-23.9-54.4-69.2c0-40.5,20.5-68.8,54.8-68.8
		c7.8,0,17.7,1,25.7,5.6c2.8,1.6,4,4.4,2.6,7.2l-5.2,10.6c-1.2,2.4-3.6,3.4-6.4,2.2c-4-1.8-9.2-3-14.2-3
		c-17.7,0-29.7,12.4-29.7,46.5c0,33.1,11.2,45.5,30.1,45.5c4.2,0,10.2-1.6,14.8-3.6c2.4-1,5.4-0.4,6.4,2l5.2,12.2
		C1159.2,442.2,1157.8,444.8,1156,445.8z"/>
	<path class="st14" d="M1244.9,450.6h-64.8c-3,0-5.6-2.6-5.6-5.6V321c0-3,2.6-5.6,5.6-5.6h63c3,0,5.6,2.6,5.6,5.6v11.8
		c0,3-2.6,5.6-5.6,5.6h-41.7v29.9h37.1c3,0,5.6,2.6,5.6,5.6v10.8c0,3-2.6,5.6-5.6,5.6h-37.1v36.5h43.5c3,0,5.6,2.6,5.6,5.6V445
		C1250.5,448,1247.9,450.6,1244.9,450.6z"/>
</g>
</svg>
