<?xml version="1.0" encoding="utf-8"?>
<!-- Generator: Adobe Illustrator 24.0.1, SVG Export Plug-In . SVG Version: 6.00 Build 0)  -->
<svg version="1.1" id="Layer_1" xmlns="http://www.w3.org/2000/svg" xmlns:xlink="http://www.w3.org/1999/xlink" x="0px" y="0px"
	 viewBox="0 0 247.5 98" style="enable-background:new 0 0 247.5 98;" xml:space="preserve">
<style type="text/css">
	.st0{fill:#FFFFFF;}
	.st1{fill:#6F777E;}
	.st2{fill:#056079;}
	.st3{fill-rule:evenodd;clip-rule:evenodd;fill:#D93552;}
</style>
<rect class="st0" width="247.5" height="98"/>
<g>
	<path class="st1" d="M111.1,38.8h-0.6v-3.2h0.5V36c0.1-0.1,0.2-0.2,0.3-0.3c0.1-0.1,0.3-0.1,0.4-0.1v0.6c-0.3,0-0.4,0.1-0.6,0.2
		c-0.1,0.1-0.2,0.3-0.2,0.6V38.8z"/>
	<path class="st1" d="M119.5,38.8v-0.4c-0.1,0.2-0.3,0.3-0.5,0.3c-0.2,0.1-0.4,0.1-0.6,0.1c-0.5,0-0.9-0.2-1.2-0.5
		c-0.3-0.3-0.5-0.7-0.5-1.2c0-0.2,0-0.4,0.1-0.6c0.1-0.2,0.2-0.4,0.3-0.5c0.2-0.2,0.3-0.3,0.5-0.4c0.2-0.1,0.4-0.1,0.7-0.1
		c0.2,0,0.4,0,0.6,0.1c0.2,0.1,0.4,0.2,0.5,0.4v-0.4h0.6v3.2H119.5z M117.3,37.2c0,0.3,0.1,0.6,0.3,0.8c0.2,0.2,0.5,0.3,0.8,0.3
		c0.3,0,0.5-0.1,0.7-0.3c0.2-0.2,0.3-0.5,0.3-0.8c0-0.3-0.1-0.6-0.3-0.8c-0.2-0.2-0.5-0.3-0.8-0.3c-0.3,0-0.6,0.1-0.8,0.3
		C117.4,36.6,117.3,36.9,117.3,37.2"/>
	<path class="st1" d="M126,38.8h-0.6v-3.2h0.6V36c0.1-0.1,0.3-0.2,0.4-0.3c0.1-0.1,0.3-0.1,0.5-0.1c0.4,0,0.7,0.1,1,0.4
		c0.2,0.2,0.3,0.6,0.3,1.1v1.8h-0.6v-1.7c0-0.3-0.1-0.6-0.2-0.8c-0.1-0.2-0.3-0.2-0.6-0.2c-0.3,0-0.5,0.1-0.6,0.3
		c-0.1,0.2-0.2,0.5-0.2,1V38.8z"/>
	<path class="st1" d="M133.3,37.8h0.5c0,0.2,0,0.3,0.1,0.4c0.1,0.1,0.2,0.2,0.4,0.2c0.1,0,0.2,0,0.3-0.1c0.1-0.1,0.1-0.2,0.1-0.3
		c0-0.1,0-0.2-0.1-0.3c-0.1-0.1-0.2-0.1-0.3-0.2c0,0-0.1,0-0.2-0.1c-0.2-0.1-0.4-0.2-0.4-0.2c-0.1-0.1-0.2-0.2-0.3-0.3
		c-0.1-0.1-0.1-0.2-0.1-0.4c0-0.3,0.1-0.5,0.3-0.7c0.2-0.2,0.4-0.3,0.7-0.3c0.3,0,0.5,0.1,0.6,0.2c0.2,0.2,0.2,0.4,0.3,0.7h-0.6
		c0-0.1,0-0.2-0.1-0.3c-0.1-0.1-0.2-0.1-0.3-0.1c-0.1,0-0.2,0-0.3,0.1c-0.1,0.1-0.1,0.2-0.1,0.3c0,0.2,0.2,0.3,0.5,0.4
		c0.1,0,0.2,0.1,0.2,0.1c0.2,0.1,0.4,0.2,0.5,0.4c0.1,0.1,0.2,0.3,0.2,0.6c0,0.3-0.1,0.5-0.3,0.7c-0.2,0.2-0.4,0.3-0.7,0.3
		c-0.3,0-0.5-0.1-0.7-0.3C133.5,38.4,133.4,38.1,133.3,37.8"/>
	<path class="st1" d="M141.1,38.4v1.4h-0.6v-4.2h0.6V36c0.1-0.2,0.3-0.3,0.5-0.3c0.2-0.1,0.4-0.1,0.6-0.1c0.5,0,0.9,0.2,1.2,0.5
		c0.3,0.3,0.5,0.7,0.5,1.2c0,0.2,0,0.4-0.1,0.6c-0.1,0.2-0.2,0.4-0.3,0.5c-0.2,0.2-0.3,0.3-0.5,0.4c-0.2,0.1-0.4,0.1-0.7,0.1
		c-0.2,0-0.4,0-0.6-0.1C141.5,38.7,141.3,38.6,141.1,38.4 M141.1,37.2c0,0.3,0.1,0.6,0.3,0.8c0.2,0.2,0.5,0.3,0.8,0.3
		c0.3,0,0.6-0.1,0.8-0.3c0.2-0.2,0.3-0.5,0.3-0.8c0-0.3-0.1-0.6-0.3-0.8c-0.2-0.2-0.5-0.3-0.8-0.3c-0.3,0-0.5,0.1-0.7,0.3
		C141.2,36.7,141.1,36.9,141.1,37.2"/>
	<path class="st1" d="M148.9,37.2c0-0.2,0-0.4,0.1-0.6c0.1-0.2,0.2-0.4,0.3-0.5c0.2-0.2,0.3-0.3,0.5-0.4c0.2-0.1,0.4-0.1,0.6-0.1
		c0.2,0,0.4,0,0.6,0.1c0.2,0.1,0.4,0.2,0.5,0.4c0.2,0.2,0.3,0.3,0.4,0.5c0.1,0.2,0.1,0.4,0.1,0.6c0,0.2,0,0.4-0.1,0.6
		c-0.1,0.2-0.2,0.4-0.3,0.5c-0.2,0.2-0.3,0.3-0.5,0.4c-0.2,0.1-0.4,0.1-0.6,0.1c-0.2,0-0.4,0-0.6-0.1c-0.2-0.1-0.4-0.2-0.5-0.4
		c-0.1-0.2-0.3-0.3-0.3-0.5C149,37.7,148.9,37.5,148.9,37.2 M149.5,37.2c0,0.3,0.1,0.6,0.3,0.8c0.2,0.2,0.5,0.3,0.8,0.3
		c0.3,0,0.5-0.1,0.7-0.3c0.2-0.2,0.3-0.5,0.3-0.8c0-0.3-0.1-0.6-0.3-0.8c-0.2-0.2-0.4-0.3-0.7-0.3c-0.3,0-0.5,0.1-0.7,0.3
		C149.6,36.6,149.5,36.9,149.5,37.2"/>
	<path class="st1" d="M158,38.8h-0.6v-3.2h0.5V36c0.1-0.1,0.2-0.2,0.3-0.3c0.1-0.1,0.3-0.1,0.4-0.1v0.6c-0.3,0-0.4,0.1-0.6,0.2
		c-0.1,0.1-0.2,0.3-0.2,0.6V38.8z"/>
	<polygon class="st1" points="164.1,38.8 164.1,36.2 163.6,36.2 163.6,35.6 164.1,35.6 164.1,34.6 164.6,34.6 164.6,35.6 
		165.1,35.6 165.1,36.2 164.6,36.2 164.6,38.8 	"/>
	<polygon class="st1" points="178.6,38.8 176.6,38.8 176.6,34.6 177.3,34.6 177.3,38.2 178.6,38.2 	"/>
	<polygon class="st1" points="184.9,38.8 184.3,38.8 184.3,35.2 183.5,35.2 183.5,34.6 185.7,34.6 185.7,35.2 184.9,35.2 	"/>
	<path class="st1" d="M192,38.8h-1.2v-4.2h1.4c0.6,0,1.1,0.2,1.5,0.6c0.4,0.4,0.6,0.9,0.6,1.5c0,0.4-0.1,0.7-0.2,1
		c-0.1,0.3-0.4,0.5-0.6,0.7c-0.2,0.1-0.4,0.2-0.6,0.3C192.6,38.8,192.3,38.8,192,38.8 M191.4,38.3h0.7c0.5,0,0.8-0.1,1.1-0.4
		c0.3-0.3,0.4-0.6,0.4-1.1c0-0.5-0.1-0.9-0.4-1.1c-0.3-0.3-0.7-0.4-1.2-0.4h-0.6V38.3z"/>
	<rect x="199.7" y="38.1" class="st1" width="0.6" height="0.7"/>
	<polygon class="st2" points="105.2,3.9 118.3,3.9 118.3,16.9 	"/>
	<polygon class="st2" points="105.2,17.2 105.2,30.4 118.2,30.4 	"/>
	<polygon class="st2" points="132.4,3.9 121.2,3.9 121.2,30.4 132.6,30.4 121.4,15.9 	"/>
	<polygon class="st2" points="141.7,22.1 141.7,11.2 135.9,16.6 	"/>
	<polygon class="st2" points="145.2,14.2 145.2,3.9 136.1,3.9 	"/>
	<path class="st2" d="M157.8,30.4c3.9-0.2,6.5-1.2,7.8-2.8c0.9-1.2,1.4-3.4,1.4-6.7V4h-9.2V30.4z"/>
	<path class="st2" d="M146.7,20.8c0,3.7,0.7,6.3,2.1,7.5c1.2,1.1,3.5,1.8,7.1,2V4h-9.2V20.8z"/>
	<polygon class="st2" points="179.5,4 170.4,4 179.5,14.2 	"/>
	<polygon class="st2" points="176,11.2 170.2,16.6 176,22.1 	"/>
	<polygon class="st2" points="179.7,30.4 179.7,18.6 170.4,30.4 	"/>
	<polygon class="st2" points="192.1,30.4 199.9,30.4 199.9,18.2 	"/>
	<rect x="181.8" y="4" class="st2" width="9.4" height="26.4"/>
	<path class="st3" d="M81.2,16.4c0.1,0.3,0.1,0.6,0,0.8c-0.1,0.5-0.2,0.9-0.3,1.4c-0.2,0.9-0.5,1.8-0.8,2.7c-0.2,0.7-0.5,1.4-0.8,2
		c-0.2,0.4-0.5,0.8-0.7,1.3c-0.3,0.6-0.7,1.2-1.2,1.8C76.8,27.2,76,28,75,28.8c-1,0.8-2,1.3-3.2,1.8c-0.7,0.3-1.5,0.5-2.3,0.6
		c-0.4,0.1-0.7,0.1-1.1,0.2c-0.4,0.1-0.9,0.1-1.3,0.1c-0.3,0-0.6,0.1-0.9,0.1c-0.2,0-0.4,0-0.7,0.1c-0.3,0-0.6,0.1-0.9,0.1
		c-0.2,0-0.4,0.1-0.7,0.1c-0.8,0.1-1.6,0.1-2.4,0.2c-0.7,0.1-1.3,0.2-2,0.3c-0.3,0-0.5,0-0.8,0c-0.3,0-0.5,0.1-0.8,0.1
		c-0.9,0.1-1.7,0.2-2.6,0.3c-0.4,0.1-0.9,0.1-1.3,0.2c-0.3,0-0.7,0.1-1,0.1c-0.2,0-0.3,0.1-0.4,0.3c-0.4,1.1-0.9,2.1-1.3,3.2
		c-0.4,1.1-0.8,2.2-1.2,3.3c-0.2,0.6-0.4,1.2-0.6,1.8c0,0.1-0.1,0.3-0.3,0.4c0-0.3,0.1-0.6,0.2-0.8c0-0.1,0.1-0.2,0.1-0.2
		c0-0.4,0.2-0.7,0.3-1.1c0.2-0.8,0.4-1.5,0.6-2.3c0-0.1,0.1-0.3,0.1-0.4c0.2-0.8,0.5-1.5,0.7-2.3c0.2-0.5,0.3-1,0.5-1.5
		c-0.1,0-0.2-0.1-0.3,0c-0.4,0.1-0.7,0.1-1,0.2c-0.8,0.1-1.5,0.2-2.3,0.3c-0.3,0-0.7,0.1-1,0.2c-0.3,0.1-0.6,0.1-0.9,0.1
		c-0.3,0.1-0.6,0.1-0.9,0.2c-0.8,0.2-1.6,0.3-2.4,0.5c-0.7,0.2-1.4,0.3-2.1,0.5c-0.7,0.2-1.5,0.3-2.2,0.5c-0.7,0.2-1.4,0.4-2.1,0.7
		c-0.8,0.3-1.6,0.6-2.3,1c-0.7,0.4-1.4,0.8-2.1,1.3c-0.4,0.3-0.7,0.7-1,1.1c-0.4,0.5-0.7,1.1-0.9,1.6c-0.2,0.5-0.3,1-0.5,1.5
		c-0.2,0.8-0.3,1.7-0.4,2.5c-0.1,0.8-0.1,1.6,0,2.5c0,0.6,0.1,1.2,0.1,1.7c0,0.1,0,0.1,0,0.2c0,0.7,0.2,1.3,0.3,2
		c0,0.2,0.1,0.4,0,0.6c-0.2-0.2-0.3-0.3-0.3-0.4c-0.2-0.6-0.4-1.2-0.6-1.9c-0.2-0.8-0.4-1.6-0.6-2.4c-0.1-0.5-0.2-0.9-0.2-1.4
		c-0.2-1.1-0.2-2.3-0.1-3.4c0.1-0.9,0.3-1.7,0.7-2.6c0.2-0.6,0.6-1.1,1-1.6c0.1-0.2,0.3-0.3,0.4-0.5c0.6-0.5,1.1-1,1.8-1.4
		c1-0.6,2.1-1.2,3.3-1.6c0.5-0.2,0.9-0.4,1.4-0.5c0.2,0,0.5-0.2,0.7-0.3c0.9-0.3,1.7-0.5,2.6-0.7c0.2,0,0.4-0.1,0.6-0.2
		c1.1-0.3,2.2-0.5,3.2-0.7c0.2,0,0.5-0.1,0.7-0.2c0.7-0.1,1.4-0.2,2.1-0.3c0.9-0.2,1.8-0.3,2.8-0.4c0.6-0.1,1.3-0.2,2-0.2
		c0.4,0,0.8-0.1,1.2-0.2c0.2-0.4,0.3-0.9,0.5-1.3c0.4-0.9,0.8-1.8,1.1-2.8c0.4-1,0.9-2,1.5-3c0.9-1.7,1.9-3.4,3.2-4.9
		c0.4-0.5,0.9-1,1.3-1.4c0.6-0.5,1.1-0.9,1.8-1.2c0.4-0.2,0.8-0.5,1.3-0.7c0.6-0.2,1.1-0.4,1.7-0.7c0.2-0.1,0.4-0.1,0.5-0.2
		c0.4-0.1,0.8-0.2,1.2-0.3c1-0.2,1.9-0.4,2.9-0.6c0.1,0,0.2,0,0.2,0c0.7-0.1,1.3-0.2,2-0.3c0.1,0,0.3,0,0.4-0.1
		c1-0.1,1.9-0.2,2.9-0.3c0.1,0,0.2,0,0.3,0c1.9-0.1,3.8-0.1,5.7-0.2c0.5,0,0.9,0,1.4,0c0.2,0,0.3,0,0.5,0.1c0,0,0.1,0,0.2,0.1
		c-0.1,0-0.1,0.1-0.2,0.1c-0.3,0-0.6,0.1-0.9,0.1c-0.8,0-1.6,0-2.5,0.1c-0.5,0.1-1,0.1-1.5,0.1c-0.3,0-0.6,0.1-0.9,0.1
		c-1.1,0.1-2.2,0.3-3.3,0.4c-0.5,0.1-0.9,0.2-1.4,0.3C72.2,15,72.1,15,72,15c-0.5,0-1,0.2-1.5,0.3c-0.4,0.1-0.7,0.1-1.1,0.2
		c-1.2,0.3-2.4,0.6-3.6,1.1c-0.8,0.3-1.6,0.7-2.4,1.1c-0.9,0.5-1.7,1.1-2.4,1.8c-0.8,0.8-1.6,1.7-2.3,2.6c-0.6,0.8-1.2,1.7-1.7,2.6
		c-0.5,0.8-1,1.7-1.4,2.6c-0.4,0.7-0.7,1.5-1.1,2.2c-0.2,0.4-0.4,0.9-0.6,1.4c-0.1,0.2-0.2,0.3-0.3,0.5c0,0.1,0.1,0.1,0.2,0.1
		c0.9-0.1,1.8-0.2,2.6-0.3c0.6-0.1,1.1-0.1,1.7-0.2c1.3-0.1,2.5-0.2,3.8-0.3c0.5,0,1.1-0.1,1.6-0.1c0.6,0,1.2-0.1,1.8-0.1
		c1,0,1.9-0.2,2.9-0.3c1-0.2,1.9-0.5,2.9-0.8c1.1-0.4,2.1-1,3.1-1.6c1.1-0.7,2-1.6,2.8-2.5c0.8-0.9,1.5-1.9,2.1-3
		c0.6-1,1-2.1,1.4-3.2c0.2-0.4,0.3-0.9,0.4-1.3c0.1-0.4,0.2-0.7,0.3-1C81,16.6,81.1,16.5,81.2,16.4"/>
	<path class="st3" d="M102,54.5c0-0.1,0.1-0.3,0.1-0.4c0.2-1.1,0.5-2.1,1-3.2c0.2-0.4,0.3-0.8,0.5-1.1c0.6-1,1.2-1.9,2-2.8
		c0.5-0.6,1.1-1.1,1.7-1.6c0.7-0.5,1.5-1,2.3-1.4c1.1-0.6,2.3-1,3.5-1.2c1.3-0.3,2.7-0.4,4-0.3c0.9,0.1,1.9,0.2,2.8,0.4
		c0.5,0.1,1,0.3,1.5,0.5c0.9,0.3,1.6,0.7,2.4,1.2c0.6,0.4,1.2,0.8,1.8,1.3c1,0.9,1.9,2,2.6,3.2c0.3,0.5,0.5,1,0.8,1.5
		c0,0.1,0,0.2,0.1,0.3c-0.2,0.1-0.2,0-0.3-0.1c-0.1-0.1-0.1-0.2-0.2-0.4c-0.7-0.9-1.4-1.7-2.2-2.5c-0.6-0.5-1.1-1-1.8-1.4
		c-0.5-0.4-1.1-0.7-1.6-1c-0.2-0.1-0.4-0.2-0.6-0.3c-0.7-0.4-1.5-0.6-2.3-0.9c-0.6-0.2-1.3-0.3-1.9-0.4c-0.8-0.2-1.6-0.1-2.4-0.1
		c-0.6,0-1.2,0.1-1.9,0.2c-0.3,0.1-0.6,0.1-0.9,0.2c-1,0.3-2,0.7-2.9,1.3c-0.9,0.6-1.7,1.3-2.5,2.1c-1.1,1.2-1.8,2.5-2.5,3.9
		c-0.4,0.8-0.6,1.7-0.9,2.5c-0.1,0.3-0.2,0.7-0.2,1c-0.1,0.4-0.2,0.8-0.2,1.3c0,0.3-0.1,0.3-0.4,0.3c-0.1,0-0.2,0-0.3,0
		c-4.1,0-8.2,0-12.3,0c-1.8,0-3.6,0-5.4,0c-5.2,0-10.4,0-15.6,0c-0.2,0-0.3,0-0.5,0c-0.2,0-0.3-0.1-0.3-0.3c0-0.1,0-0.2,0-0.2
		c0-0.4,0-0.8-0.1-1.3c0-0.5-0.1-1.1-0.1-1.6c0-0.4-0.1-0.7-0.2-1c-0.1-0.5-0.2-0.9-0.3-1.4c-0.2-0.8-0.6-1.5-1-2.2
		c-0.3-0.6-0.8-1.1-1.3-1.5c-0.6-0.6-1.3-1.1-2-1.5c-0.2-0.1-0.5-0.3-0.7-0.4c-0.2-0.1-0.3-0.2-0.4-0.3c0-0.1,0.1-0.1,0.2-0.1
		c0,0,0.1,0,0.1,0c0.9,0.4,1.8,0.6,2.6,1.1c0.6,0.3,1.1,0.7,1.7,1c0.6,0.5,1.2,1,1.6,1.7c0.7,1,1.1,2.1,1.4,3.2
		c0,0.2,0.1,0.3,0.1,0.5c0.1,0.6,0.2,1.2,0.4,1.8c0.1,0.3,0.1,0.3,0.4,0.3c0.1,0,0.2,0,0.2,0c4.6,0,9.2,0,13.8,0
		c5.1,0,10.3,0,15.4,0c0.3,0,0.6,0,0.9,0C101.8,54.5,101.9,54.5,102,54.5"/>
	<path class="st3" d="M133.8,56.4c0.2-0.2,0.4-0.1,0.6-0.1c0.5,0,1,0,1.4-0.1c0.6,0,1.3-0.1,1.9-0.1c0.7-0.1,1.4-0.1,2.2-0.2
		c0.9-0.1,1.8-0.1,2.7-0.1c0.4,0,0.7-0.1,1.1-0.1c0.7,0,1.3-0.1,2-0.1c1-0.1,2-0.1,2.9-0.2c1.1-0.1,2.2-0.1,3.2-0.1
		c0.9,0,1.9-0.1,2.8-0.1c0.5,0,1,0,1.4,0c1.1,0,2.2-0.1,3.3-0.1c0.4,0,0.8,0,1.2,0c1,0,2,0,3-0.1c1.4-0.1,2.7-0.1,4.1-0.1
		c1.5-0.1,3.1-0.1,4.6-0.2c0.3,0,0.6,0,1,0c0-0.1,0-0.2,0-0.3c0-0.5,0-1.1,0-1.6c0.1-1.2,0.3-2.3,0.8-3.4c0.3-0.7,0.8-1.4,1.3-2
		c0.7-0.9,1.5-1.6,2.4-2.3c0.2-0.1,0.3-0.2,0.5-0.4c0.8-0.5,1.7-1,2.6-1.4c1.1-0.5,2.2-0.8,3.4-1.2c0.6-0.2,1.1-0.3,1.7-0.4
		c0.9-0.2,1.8-0.3,2.7-0.5c0.1,0,0.2,0,0.3,0c0.3,0,0.6-0.1,0.9-0.1c1-0.1,2-0.3,3-0.3c1.1,0,2.2-0.1,3.4-0.1c1.1,0,2.2,0,3.3,0
		c0.7,0,1.3,0,2,0.1c0.6,0,1.1,0.1,1.7,0.1c0,0,0,0,0,0c1,0.1,2.1,0.1,3.1,0.3c0.7,0.1,1.5,0.1,2.2,0.3c0.5,0.1,1,0.1,1.4,0.2
		c0.7,0.1,1.5,0.2,2.2,0.3c0.2,0,0.4,0,0.5,0.1c0.5,0.1,1,0.2,1.6,0.2c0.6,0.1,1.1,0.2,1.7,0.3c0.1,0,0.3,0,0.4,0.1
		c0.1,0,0.3,0.1,0.4,0.2c-0.1,0.1-0.3,0.1-0.4,0.1c-0.7-0.1-1.4-0.2-2.1-0.2c-0.6,0-1.1-0.1-1.7-0.1c-1-0.1-2-0.1-3-0.2
		c-1.7-0.1-3.5-0.2-5.2-0.3c-0.9,0-1.7-0.1-2.6-0.1c-1.4,0-2.8,0-4.1,0c-1.2,0-2.5,0.1-3.7,0.1c-0.9,0-1.9,0.1-2.8,0.2
		c-0.8,0.1-1.7,0.2-2.5,0.3c-1.2,0.2-2.3,0.4-3.4,0.7c-1,0.3-1.9,0.6-2.8,0.9c-0.6,0.3-1.2,0.6-1.9,0.9c-0.6,0.3-1.2,0.7-1.7,1.2
		c-1,0.8-1.8,1.8-2.4,3c-0.2,0.5-0.5,0.9-0.6,1.4c-0.2,0.6-0.4,1.2-0.5,1.9c-0.2,1.1-0.2,2.3-0.1,3.4c0,0.5,0,0.5-0.4,0.5
		c-2.4,0-4.9,0.1-7.3,0.1c-0.7,0-1.3,0-2,0c-1.7,0.1-3.4,0.1-5.1,0.1c-0.3,0-0.6,0-0.9,0c-0.1,0-0.3,0-0.4,0c-0.6,0-1.1,0-1.7,0
		c-3.9,0-7.8,0-11.7,0c-1.5,0-3,0-4.4,0c-0.8,0-1.5,0-2.3,0c-1.5,0-3.1-0.1-4.6-0.1C134.3,56.5,134.1,56.5,133.8,56.4"/>
	<path class="st3" d="M101.1,1.8c0,0.1,0,0.2-0.1,0.3c-0.2,0.3-0.5,0.7-0.7,1C99.7,4,99.1,5,98.6,5.9c-0.3,0.6-0.6,1.2-0.9,1.9
		c-0.5,1-0.8,2.1-1.2,3.1c-0.1,0.2-0.1,0.4-0.2,0.6c-0.1,0.5-0.3,0.9-0.4,1.4c-0.2,0.9-0.4,1.7-0.6,2.6c-0.1,0.3-0.2,0.7-0.2,1
		c-0.1,0.3-0.1,0.6-0.2,0.9c-0.1,0.6-0.2,1.3-0.4,1.9c0,0,0,0.1,0,0.1c0,0.7-0.2,1.4-0.3,2c0,0.2,0,0.5-0.1,0.7c0,0.2,0,0.3-0.1,0.5
		c0,0.1,0,0.2,0,0.2c0,0.5-0.1,1-0.2,1.4c-0.1,0.6-0.1,1.2-0.2,1.9c-0.1,0.6-0.2,1.3-0.3,1.9c0,0.3-0.1,0.6-0.1,0.9
		c-0.1,0.9-0.3,1.9-0.4,2.8c-0.1,0.4-0.1,0.8-0.2,1.2c-0.2,0.9-0.3,1.8-0.6,2.6c-0.1,0.4-0.2,0.8-0.3,1.2c-0.3,0.8-0.6,1.6-0.9,2.4
		c-0.3,0.7-0.7,1.4-1.1,2c-0.2,0.3-0.4,0.6-0.7,0.9c-0.1,0.1-0.2,0.1-0.3,0.2c0,0-0.1,0-0.1,0c0,0,0-0.1,0-0.1
		c0-0.1,0.1-0.1,0.1-0.2c0.3-0.4,0.4-0.9,0.6-1.3c0.3-0.8,0.6-1.6,0.9-2.5c0.1-0.5,0.3-1,0.4-1.5c0.1-0.3,0.1-0.7,0.2-1
		c0.2-0.8,0.3-1.6,0.4-2.5c0-0.1,0-0.3,0-0.4c0.1-0.5,0.1-1,0.1-1.4c0-0.7,0.1-1.3,0.1-2c0-0.9,0-1.7,0-2.6c0-0.5,0-1,0.1-1.5
		c0-0.5,0-1,0-1.5c0.1-1.4,0-2.7,0.2-4.1c0.1-0.5,0.1-1.1,0.1-1.6c0.1-0.9,0.2-1.7,0.3-2.5c0.1-0.9,0.4-1.8,0.6-2.7
		c0-0.2,0.1-0.3,0.1-0.5c0.1-0.4,0.2-0.8,0.4-1.2c0.2-0.5,0.3-1,0.6-1.5c0.2-0.3,0.3-0.7,0.4-1c0.5-1.2,1.2-2.3,1.9-3.4
		c0.1-0.2,0.3-0.4,0.4-0.5c0,0,0.1-0.1,0.1-0.2c-0.1,0-0.1,0-0.2,0c-0.4,0.1-0.8,0.2-1.2,0.3C95,5,94.7,5.1,94.4,5.1
		c-0.6,0.1-1.3,0.2-1.9,0.3c-0.8,0.1-1.5,0.2-2.3,0.3c-0.3,0-0.7,0.1-1.1,0.1c-0.3,0-0.6,0.1-0.9,0.1c-0.8,0.1-1.7,0.2-2.5,0.3
		c-0.5,0.1-0.9,0.1-1.4,0.2c-0.3,0.1-0.7,0.1-1,0.2c-0.9,0.2-1.9,0.4-2.8,0.7c-0.5,0.2-1.1,0.3-1.6,0.6c-0.8,0.3-1.6,0.7-2.3,1.1
		c-0.5,0.3-0.9,0.5-1.4,0.8c-0.5,0.3-1,0.7-1.5,1.1c-0.8,0.6-1.6,1.3-2.3,2c-0.2,0.2-0.5,0.5-0.7,0.7c-0.1,0.1-0.2,0.1-0.3,0.2
		c0,0-0.1,0-0.1,0c0-0.1,0-0.2,0.1-0.2c0.1-0.2,0.3-0.5,0.5-0.7c0.8-1.1,1.7-2,2.7-2.9c0.4-0.3,0.8-0.6,1.2-0.9
		c1.2-0.9,2.5-1.5,3.8-2.1c0.8-0.3,1.6-0.6,2.5-0.9c0.8-0.2,1.6-0.5,2.4-0.6c0.3-0.1,0.7-0.2,1-0.2c0.2-0.1,0.5-0.1,0.7-0.1
		c0.7-0.1,1.4-0.3,2.1-0.4c0.7-0.1,1.5-0.3,2.2-0.4c0.5-0.1,0.9-0.1,1.4-0.2c0.5-0.1,1-0.2,1.5-0.3c0,0,0.1,0,0.1,0
		c0.6,0,1.2-0.2,1.8-0.3C95.2,3.4,96.1,3.2,97,3c0.8-0.2,1.7-0.4,2.5-0.7c0.4-0.1,0.8-0.3,1.2-0.4C100.8,1.8,100.8,1.8,101.1,1.8"/>
	<path class="st3" d="M45.8,57c-0.1,0-0.2,0.1-0.2,0.1c-0.3,0-0.6,0-0.9-0.1c-0.7,0-1.3-0.1-2-0.1c-0.8-0.1-1.6-0.2-2.4-0.2
		c-0.9-0.1-1.8-0.2-2.6-0.2c-0.7,0-1.4-0.1-2.1-0.2c0,0-0.1,0-0.1,0c-0.7-0.1-1.4-0.1-2.1-0.2c-0.2,0-0.3,0-0.5-0.1
		c0-0.2,0.1-0.2,0.1-0.2c0.2,0,0.4,0,0.6-0.1c1.1-0.1,2.2-0.1,3.3-0.2c1.2-0.1,2.4-0.1,3.6-0.2c1,0,2-0.1,2.9-0.1c0.1,0,0.2,0,0.3,0
		c0-0.1,0-0.2,0-0.3c0-0.5,0-0.9,0-1.4c0-0.5,0.2-0.9,0.2-1.4c0.1-0.6,0.4-1.2,0.6-1.8c0.3-0.6,0.6-1.3,1-1.8
		c0.2-0.2,0.3-0.5,0.5-0.7c0.7-0.9,1.5-1.7,2.4-2.5c0.6-0.5,1.3-0.9,2.1-1.3c0.2-0.1,0.5-0.2,0.7-0.3c0.9-0.4,1.7-0.7,2.7-1
		c0.8-0.2,1.7-0.4,2.6-0.6c0.5-0.1,0.9-0.2,1.4-0.2c0,0,0.1,0,0.1,0c0.9-0.1,1.8-0.2,2.7-0.2c0.9,0,1.7-0.1,2.6-0.1
		c1.5,0,2.9,0,4.4,0.1c0.9,0,1.9,0.1,2.8,0.2c0.8,0.1,1.6,0.2,2.4,0.2c0.8,0.1,1.6,0.1,2.4,0.2c0.8,0.1,1.6,0.2,2.4,0.3
		c0,0,0.1,0,0.1,0c0.7,0.1,1.4,0.1,2.1,0.2c0.6,0.1,1.3,0.2,1.9,0.2c0.2,0,0.4,0,0.6,0.1c0.3,0,0.5,0,0.8,0.1
		c0.7,0.1,1.4,0.2,2.1,0.3c0,0,0,0,0,0c0.7,0,1.4,0.1,2.2,0.2c0.8,0.1,1.5,0.2,2.3,0.3c0.1,0,0.1,0,0.2,0c0.7,0,1.3,0.1,2,0.2
		c0.9,0.1,1.9,0.2,2.8,0.2c1.7,0.1,3.4,0.2,5.1,0.3c1,0,2.1,0,3.1,0c0.3,0,0.6,0,1,0c0.1,0,0.2,0,0.2,0.1c-0.2,0.1-0.4,0.1-0.6,0.1
		c-0.8,0.1-1.5,0.1-2.3,0.2c-1.1,0.1-2.2,0.2-3.3,0.2c-1.2,0.1-2.3,0-3.5,0c-0.7,0-1.4,0-2.1,0c-0.8,0-1.7-0.1-2.5-0.1
		c-0.4,0-0.7,0-1.1,0c-0.6,0-1.2-0.1-1.7-0.1c-1-0.1-1.9-0.1-2.9-0.2c-0.3,0-0.6-0.1-0.9-0.1c-0.8-0.1-1.6-0.2-2.4-0.2
		c-0.1,0-0.2,0-0.2,0c-1.1,0-2.1-0.2-3.2-0.3c-0.6-0.1-1.1-0.1-1.7-0.2c-0.2,0-0.5,0-0.7,0c-0.4,0-0.9-0.1-1.3-0.1
		c-1.2-0.1-2.3-0.2-3.5-0.3c-1,0-2.1-0.2-3.1-0.2c-0.9,0-1.9-0.1-2.8-0.1c-1,0-1.9,0-2.9,0c-0.5,0-1,0.1-1.5,0.1
		c-0.6,0.1-1.2,0.1-1.9,0.2c-0.5,0.1-1,0.1-1.5,0.2c-0.5,0.1-1,0.2-1.5,0.3c-1.2,0.3-2.3,0.7-3.4,1.2c-0.9,0.5-1.9,1-2.6,1.8
		c-0.2,0.2-0.5,0.4-0.7,0.6c-1.2,1.2-2.1,2.6-2.5,4.3c-0.1,0.5-0.2,0.9-0.3,1.4c-0.1,0.9-0.1,1.7,0,2.6c0,0.2,0.1,0.3,0.1,0.5
		C45.8,56.8,45.8,56.9,45.8,57"/>
	<path class="st3" d="M126.4,58.5c0,0.1,0,0.2-0.1,0.3c-0.8,1.2-1.8,2.2-2.9,3c-0.7,0.5-1.5,0.9-2.3,1.3c-0.9,0.3-1.7,0.6-2.6,0.8
		c-1.4,0.3-2.8,0.3-4.1,0.1c-1.2-0.1-2.3-0.5-3.3-1c-0.6-0.3-1.1-0.6-1.6-1c-1.1-0.8-2-1.8-2.7-2.9c-0.5-0.8-0.9-1.7-1.2-2.7
		c-0.2-1-0.4-2-0.1-3c0-0.8,0.3-1.6,0.6-2.3c0.2-0.6,0.6-1.1,0.9-1.6c0.6-0.9,1.3-1.6,2.1-2.3c0.5-0.4,1.1-0.9,1.8-1.1
		c0.3-0.1,0.6-0.3,0.9-0.4c0.1,0,0.1,0,0.2,0c0,0,0.1,0,0.1,0.1c0,0,0,0.1,0,0.1c-0.1,0.1-0.2,0.2-0.3,0.3c-1,0.7-2,1.6-2.8,2.6
		c-0.3,0.4-0.6,0.8-0.9,1.3c-0.4,0.7-0.7,1.4-0.9,2.2c-0.2,0.9-0.2,1.8-0.1,2.7c0.1,0.5,0.2,1,0.3,1.5c0.3,0.9,0.7,1.7,1.3,2.5
		c1,1.3,2.3,2.4,3.8,3.1c0.6,0.3,1.3,0.5,2,0.7c0.4,0.1,0.9,0.1,1.3,0.2c0.9,0.1,1.7,0,2.6-0.1c0.2,0,0.4-0.1,0.7-0.2
		c0.6-0.2,1.1-0.3,1.7-0.5c0.9-0.4,1.8-0.8,2.7-1.3c0.3-0.2,0.6-0.4,0.9-0.6c0.5-0.4,1.1-0.8,1.6-1.2
		C126,58.6,126.1,58.5,126.4,58.5"/>
	<path class="st3" d="M53.3,45.7c-0.1,0.1-0.1,0.1-0.2,0.2c-0.3,0.3-0.7,0.5-1,0.8c-0.9,0.7-1.7,1.6-2.4,2.6
		c-0.5,0.8-0.9,1.6-1.2,2.5c-0.1,0.5-0.3,1.1-0.3,1.6c0,0.2,0,0.5,0,0.7c0,0.8,0.2,1.6,0.4,2.4c0.5,1.3,1.2,2.5,2.3,3.5
		c0.1,0.1,0.2,0.2,0.3,0.3c0.1,0.1,0.1,0.2,0.2,0.2c0.4,0.2,0.7,0.5,1,0.8c0.1,0.1,0.3,0.2,0.5,0.3c0.3,0.2,0.6,0.4,0.9,0.5
		c0.2,0.1,0.5,0.2,0.8,0.3c0.1,0,0.2,0,0.3,0.1c1.2,0.4,2.4,0.5,3.7,0.4c0.7-0.1,1.4-0.2,2-0.4c0.9-0.2,1.7-0.6,2.5-1
		c0.1,0,0.2-0.1,0.3-0.1c0.8-0.4,1.6-0.9,2.3-1.4c0.5-0.4,1-0.7,1.5-1.1c0.1-0.1,0.1-0.1,0.2-0.1c0.1,0,0.1,0,0.2,0.1
		c-0.1,0.1-0.1,0.2-0.1,0.2c-0.5,0.6-0.9,1.2-1.5,1.7c-0.7,0.7-1.5,1.3-2.3,1.8c-0.5,0.3-0.9,0.5-1.4,0.7c-0.6,0.2-1.2,0.5-1.9,0.6
		c-0.3,0-0.6,0.1-0.9,0.2C59,64,58.3,64,57.5,64c-0.6,0-1.2,0-1.7-0.1c-0.6,0-1.3-0.2-1.9-0.4c-0.2-0.1-0.4-0.1-0.6-0.2
		c-0.3-0.1-0.6-0.2-0.9-0.4c-0.1,0-0.1-0.1-0.2-0.1c-0.8-0.3-1.5-0.8-2.1-1.4c-0.8-0.7-1.6-1.5-2.1-2.5c-0.5-0.8-0.9-1.6-1.1-2.5
		c-0.2-0.8-0.3-1.6-0.3-2.4c0-0.7,0.2-1.3,0.3-2c0.4-1.4,1.1-2.6,2.1-3.7c0.8-0.9,1.7-1.6,2.7-2.2c0.4-0.2,0.9-0.4,1.3-0.6
		C53.1,45.5,53.2,45.6,53.3,45.7L53.3,45.7z"/>
	<path class="st3" d="M205.2,45.6c-0.1,0.1-0.2,0.2-0.3,0.3c-0.8,0.5-1.5,1.1-2.1,1.8c-0.7,0.7-1.3,1.5-1.8,2.4
		c-0.2,0.4-0.4,0.9-0.6,1.4c-0.1,0.3-0.2,0.6-0.2,0.9c-0.1,0.6-0.2,1.2-0.1,1.8c0,0.4,0.1,0.9,0.2,1.3c0.1,0.6,0.3,1.1,0.5,1.6
		c0.1,0.2,0.2,0.4,0.3,0.6c0.4,0.7,0.8,1.3,1.3,1.8c0.5,0.6,1.1,1.1,1.7,1.5c0.6,0.4,1.3,0.8,2,1.1c0.6,0.2,1.2,0.4,1.8,0.5
		c0.7,0.1,1.4,0.1,2.1,0.1c0.9,0,1.7-0.2,2.5-0.4c0.6-0.2,1.1-0.3,1.6-0.6c0.4-0.2,0.8-0.4,1.3-0.6c0.3-0.1,0.6-0.3,0.8-0.5
		c1-0.6,2-1.3,2.9-2c0,0,0.1-0.1,0.1-0.1c0,0,0.1,0,0.1,0c0,0,0.1,0.1,0,0.1c0,0.1-0.1,0.2-0.1,0.3c-0.5,0.8-1.1,1.4-1.8,2.1
		c-0.6,0.5-1.3,1-2,1.4c-0.4,0.2-0.9,0.5-1.3,0.7c-0.9,0.3-1.8,0.6-2.8,0.8c-0.9,0.2-1.9,0.2-2.8,0.2c-0.2,0-0.4,0-0.6,0
		c-0.6,0-1.2-0.1-1.8-0.3c-0.2,0-0.3-0.1-0.5-0.1c-0.1,0-0.2,0-0.3-0.1c-0.8-0.4-1.6-0.6-2.3-1.1c-1-0.6-1.9-1.4-2.7-2.3
		c-0.6-0.7-1-1.4-1.4-2.2c-0.4-0.9-0.7-1.9-0.7-2.9c0-0.5,0-1.1,0-1.6c0-0.5,0.2-1.1,0.3-1.6c0.3-1,0.8-1.9,1.4-2.8
		c0.6-0.8,1.3-1.5,2.2-2.1c0.7-0.5,1.4-0.8,2.1-1.2C204.7,45.6,204.9,45.5,205.2,45.6"/>
	<path class="st3" d="M197.7,58.5c0.1,0.2,0.1,0.3,0,0.4c-0.1,0.1-0.2,0.3-0.3,0.4c-0.4,0.6-1,1.2-1.5,1.6c-0.3,0.3-0.7,0.6-1.1,0.8
		c-1,0.7-2.2,1.2-3.4,1.6c-0.7,0.2-1.4,0.4-2.1,0.5c-0.7,0.1-1.5,0.1-2.2,0.1c-0.3,0-0.6,0-0.9,0c-0.5,0-1-0.1-1.5-0.2
		c-0.6-0.1-1.3-0.3-1.9-0.6c-0.7-0.3-1.4-0.7-2.1-1.2c-0.7-0.5-1.4-1.2-2-1.9c-0.4-0.5-0.7-1-1.1-1.6c-0.3-0.6-0.5-1.2-0.8-1.8
		c0,0,0-0.1,0-0.1c-0.1-0.7-0.3-1.4-0.2-2.1c0-0.7,0.1-1.4,0.2-2.1c0.2-0.6,0.4-1.3,0.7-1.8c0.3-0.6,0.7-1.1,1.1-1.7
		c0.5-0.6,1.1-1.2,1.7-1.7c0.2-0.2,0.4-0.3,0.7-0.5c0.6-0.5,1.4-0.8,2.1-1.1c0.1,0,0.2-0.1,0.3,0c0,0.2-0.1,0.2-0.2,0.3
		c-0.6,0.4-1.2,0.9-1.7,1.4c-0.7,0.7-1.4,1.4-1.9,2.3c-0.3,0.5-0.5,0.9-0.7,1.4c-0.2,0.5-0.4,1-0.4,1.5c0,0.3-0.1,0.6-0.1,0.9
		c-0.1,0.7,0.1,1.3,0.2,2c0.1,0.3,0.2,0.7,0.3,1c0.1,0.4,0.3,0.7,0.5,1.1c0.5,1,1.2,1.9,2.1,2.6c0.4,0.4,0.9,0.8,1.4,1.1
		c0.8,0.5,1.7,0.9,2.7,1.2c1.1,0.3,2.2,0.4,3.3,0.3c0.7-0.1,1.4-0.2,2.1-0.4c0.5-0.2,1-0.3,1.5-0.5c0.9-0.4,1.8-0.8,2.7-1.4
		c0.7-0.4,1.3-0.8,1.9-1.3c0.1-0.1,0.2-0.2,0.4-0.3C197.5,58.6,197.6,58.6,197.7,58.5"/>
</g>
<g>
	<g>
		<g>
			<path d="M2,76.9h3.3l4.9,13.1h0V76.9h2.6v17.6H9.5L4.6,81.1h0v13.5H2V76.9z"/>
			<path d="M15.3,91.3H18v3.3h-2.7V91.3z"/>
			<path d="M20.9,76.9h2.7v7.7h0l5.1-7.7h3l-4.9,7.4l5.4,10.2h-3.1l-4.1-7.9l-1.5,2.2v5.7h-2.7V76.9z"/>
			<path d="M33.3,91.3H36v3.3h-2.7V91.3z"/>
			<path d="M44.6,76.9h9v2.4h-6.3v4.9h6v2.4h-6v8h-2.7V76.9z"/>
			<path d="M58,76.9v12.6c0,2.2,0.9,3.2,2.5,3.2c1.6,0,2.5-1,2.5-3.2V76.9h2.7v12.4c0,4.1-1.9,5.6-5.2,5.6c-3.3,0-5.2-1.5-5.2-5.6
				V76.9H58z"/>
			<path d="M68.3,76.9h9.2v2.4H71v4.9h6.1v2.4H71v5.6h6.6v2.4h-9.3V76.9z"/>
			<path d="M79.4,76.9h2.7v15.3h6.5v2.4h-9.3V76.9z"/>
			<path d="M97.8,79.3h-4v-2.4h10.7v2.4h-4v15.3h-2.7V79.3z"/>
			<path d="M106,76.9h6c2.4,0,4.3,1.2,4.3,4.5c0,2.3-1,4-2.8,4.3v0c1.7,0.2,2.6,1.1,2.7,3.6c0,1.1,0,2.5,0.1,3.6
				c0,0.9,0.5,1.3,0.8,1.5H114c-0.3-0.3-0.4-0.9-0.5-1.6c-0.1-1.1-0.1-2-0.1-3.3c0-1.9-0.6-2.8-2.5-2.8h-2.2v7.7H106V76.9z
				 M110.9,84.8c1.7,0,2.7-1.1,2.7-2.9c0-1.9-0.8-2.9-2.6-2.9h-2.3v5.7H110.9z"/>
			<path d="M122,76.9h3.5l4.5,17.6h-2.8l-1-4.3h-5l-1.1,4.3h-2.8L122,76.9z M125.6,88l-1.9-8.7h0l-2,8.7H125.6z"/>
			<path d="M131.1,76.9h3.3l4.9,13.1h0V76.9h2.6v17.6h-3.3l-4.9-13.5h0v13.5h-2.6V76.9z"/>
			<path d="M146.8,89.1v0.4c0,2.1,0.9,3.2,2.8,3.2c1.7,0,2.6-1.3,2.6-2.6c0-1.9-0.9-2.7-2.4-3.1l-1.9-0.7c-2.5-1-3.5-2.3-3.5-4.8
				c0-3.2,2.1-5,5.3-5c4.3,0,4.8,2.8,4.8,4.6v0.4h-2.7v-0.4c0-1.6-0.7-2.5-2.4-2.5c-1.2,0-2.3,0.7-2.3,2.5c0,1.5,0.7,2.3,2.5,3
				l1.8,0.7c2.4,0.9,3.4,2.2,3.4,4.7c0,3.8-2.2,5.3-5.6,5.3c-4.2,0-5.1-2.9-5.1-5.4v-0.4H146.8z"/>
			<path d="M157,76.9h5.4c3.2,0,4.7,2.1,4.7,5.1c0,3.2-1.8,5.2-5,5.2h-2.4v7.3H157V76.9z M159.7,85.1h1.9c1.4,0,2.7-0.8,2.7-3
				c0-1.9-0.7-3.1-2.9-3.1h-1.7V85.1z"/>
			<path d="M168.5,85.7c0-6.3,1.7-9.2,5.6-9.2c3.9,0,5.6,2.9,5.6,9.2s-1.7,9.2-5.6,9.2C170.2,94.9,168.5,92,168.5,85.7z M177,85.7
				c0-5.9-1.3-7-2.9-7c-1.6,0-2.9,1-2.9,7c0,6.1,1.3,7.1,2.9,7.1C175.7,92.8,177,91.7,177,85.7z"/>
			<path d="M182.1,76.9h6c2.4,0,4.3,1.2,4.3,4.5c0,2.3-1,4-2.8,4.3v0c1.7,0.2,2.6,1.1,2.7,3.6c0,1.1,0,2.5,0.1,3.6
				c0,0.9,0.5,1.3,0.8,1.5H190c-0.3-0.3-0.4-0.9-0.5-1.6c-0.1-1.1-0.1-2-0.1-3.3c0-1.9-0.6-2.8-2.5-2.8h-2.2v7.7h-2.7V76.9z
				 M186.9,84.8c1.7,0,2.7-1.1,2.7-2.9c0-1.9-0.8-2.9-2.6-2.9h-2.3v5.7H186.9z"/>
			<path d="M197.2,79.3h-4v-2.4h10.7v2.4h-4v15.3h-2.7V79.3z"/>
			<path d="M210.8,76.9h2.7v15.3h6.5v2.4h-9.3V76.9z"/>
			<path d="M222.2,79.3h-4v-2.4h10.7v2.4h-4v15.3h-2.7V79.3z"/>
			<path d="M230.4,76.9h4.8c5.3,0,6,3.6,6,8.8s-0.7,8.8-6,8.8h-4.8V76.9z M233.1,92.4h2.2c2.2,0,3.2-1.5,3.2-6.7
				c0-5-0.8-6.7-3.2-6.7h-2.2V92.4z"/>
			<path d="M242.7,91.3h2.7v3.3h-2.7V91.3z"/>
		</g>
	</g>
</g>
</svg>
